<svg width="1130" height="1558" viewBox="0 0 1130 1558" fill="none" xmlns="http://www.w3.org/2000/svg">
<g clip-path="url(#clip0_30_2323)">
<path d="M1119.6 761.139V718.714H1105.29V666.288H1050.92V761.139H1047.11V608.878H1040.42V551.465H1024.2V608.878H1019.43V536.486H995.586V573.924H990.814V608.878H961.252V621.358H945.032V586.903H936.441V563.948H924.993V586.903H916.43V619.368H909.828V683.67H916.43V753.643H901.151V813.766H873.48V764.677H880.67V716.151H873.48V681.27H841.046V777.116H814.689V740.385H800.99V713.717H779.035V678.772H757.099V801.302H743.744V732.998H727.521V801.302H708.451V690.113H678.989V751.883H659.321V801.302H647.096V733.315H580.917V801.302H559.79V746.381H539.991V596.6H528.153V564.569H513.298V596.6H504.314V586.404H486.187V596.6H479.668V618.86H474.368V651.309H479.668V703.735H469.964V746.381H454.857V678.976H449.928V641.325H441.346V678.976H426.242V651.524H423.821V633.023H417.878V611.367H404.143V633.023H394.125V651.524H359.881V1232.44L1150.13 1232.31V761.139H1119.6Z" fill="#E55800"/>
<path d="M117.651 688.364H27.371V478.68H-7.99269V424.678H-40.5192V401.752H-48.9763V424.678H-58.425V461.843H-84.5575V478.68H-100.461V546.078H-131.151V456.283H-132.105V401.09H-139.733V456.283H-161.669V566.051H-209.37V495.947H-223.68V566.051H-267.399V674.326H-270.981V564.8H-288.545V530.885H-303.815V508.427H-320.032V564.8H-332.986V674.326H-353.313V692.113H-368.999V1269.37L117.651 1269.29V688.364Z" fill="#E55800"/>
<path d="M2228.86 664.855V640.074H2203.55V487.394H2187.42V408.812H2167.23V440.129H2148.24V487.394H2126.36V640.074H2121.92V489.141H2067.49V391.418H2049.68V489.141H1990.3V336.126H1963V259.197H1953.48V336.126H1952.3V461.295H1914.1V367.353H1894.31V343.881H1861.78V292.079H1850.01V260.131H1839.48V292.079H1798.99V367.353H1754.99V659.631H1549.15V633.842H1536.69V603.67H1519.59V633.842H1512.18V659.631H1509.17V697.903H1490.38V645.42H1479.68V697.903H1473.54V791.851H1454.75V732.407H1442.67V659.343H1449.27V614.112H1442.67V583.086H1434.56V568.869H1412V583.086H1400.81V538.428H1382.32V583.086H1367.57V791.851H1342.93V868.402H1316.63V773.651H1234.25V868.402H1224.31V953.924H1044.41V746.33H1042.69V783.504H1025.62V834.708H992.819V701.096H952.434V749.73H943.49V817.355H952.434V885.796H918.001V801.999H898.988V704.445H907.202V614.816H898.988V569.566H888.327V537.558H874.071V569.566H863.385V617.593H843.202V600.189H806.376V551.475H800.44V499.286H770.757V600.189H764.814V520.164H744.627V600.189H736.324V812.432H731.567V680.211H663.891V753.285H646.072V812.432H608.07L608.159 1467.88L2248.38 1469.5V664.855H2228.86Z" fill="#E55800"/>
<mask id="mask0_30_2323" style="mask-type:luminance" maskUnits="userSpaceOnUse" x="1112" y="817" width="114" height="398">
<path d="M1112.18 817.625H1226V1214.84H1112.18V817.625Z" fill="white"/>
</mask>
<g mask="url(#mask0_30_2323)">
<mask id="mask1_30_2323" style="mask-type:luminance" maskUnits="userSpaceOnUse" x="1112" y="818" width="114" height="397">
<path d="M1203.46 1185.68V1177.77H1215.98V1185.68H1203.46ZM1164.84 846.208V854.318H1152.32V846.208H1164.84ZM1152.32 825.054H1164.84V837.282H1152.32V825.054ZM1189.89 846.208V854.318H1177.36V846.208H1189.89ZM1177.36 825.054H1189.89V837.282H1177.36V825.054ZM1199.12 849.992V818.15H1149.75L1125.06 841.796L1125.26 841.991H1112.65V1214.37H1225.38V849.992H1199.12Z" fill="white"/>
</mask>
<g mask="url(#mask1_30_2323)">
<mask id="mask2_30_2323" style="mask-type:luminance" maskUnits="userSpaceOnUse" x="1112" y="818" width="114" height="397">
<path d="M1203.46 1185.68V1177.77H1215.98V1185.68H1203.46ZM1164.84 846.208V854.318H1152.32V846.208H1164.84ZM1152.32 825.054H1164.84V837.282H1152.32V825.054ZM1189.89 846.208V854.318H1177.36V846.208H1189.89ZM1177.36 825.054H1189.89V837.282H1177.36V825.054ZM1199.12 849.992V818.15H1149.75L1125.06 841.796L1125.26 841.991H1112.65V1214.37H1225.38V849.992H1199.12Z" fill="white"/>
</mask>
<g mask="url(#mask2_30_2323)">
<path d="M1112.65 1214.37H1225.38V818.15H1112.65V1214.37Z" fill="#E55800"/>
</g>
</g>
</g>
<mask id="mask3_30_2323" style="mask-type:luminance" maskUnits="userSpaceOnUse" x="1029" y="835" width="97" height="403">
<path d="M1029.76 835.133H1125.44V1237.39H1029.76V835.133Z" fill="white"/>
</mask>
<g mask="url(#mask3_30_2323)">
<path d="M1029.76 1237.39H1125.44V835.133H1029.76V1237.39Z" fill="#E55800"/>
</g>
<mask id="mask4_30_2323" style="mask-type:luminance" maskUnits="userSpaceOnUse" x="855" y="527" width="195" height="796">
<path d="M855.065 527.697H1049.95V1322.95H855.065V527.697Z" fill="white"/>
</mask>
<g mask="url(#mask4_30_2323)">
<mask id="mask5_30_2323" style="mask-type:luminance" maskUnits="userSpaceOnUse" x="855" y="528" width="195" height="795">
<path d="M882.711 877.531H864.303V874.853H882.711V877.531ZM864.827 851.806H882.711V854.493H864.827V851.806ZM864.303 670.17V667.493H882.711V670.17H864.303ZM864.303 923.609V920.932H882.711V923.609H864.303ZM864.303 624.092V621.414H882.711V624.092H864.303ZM864.827 598.367H882.711V601.054H864.827V598.367ZM870.844 589.841H877.778V595.369H870.844V589.841ZM882.135 564.961H891.529V572.447H882.135V564.961ZM927.542 551.998H936.94V559.49H927.542V551.998ZM927.542 540.474H936.94V547.967H927.542V540.474ZM964.332 543.357H973.724V550.849H964.332V543.357ZM964.332 531.839H973.724V539.326H964.332V531.839ZM1049.91 689.759V680.539H1038.94V677.861H1036.24V670.948H1044.84V667.493H1036.24V647.91H1044.84V644.452H1036.33V647.139H1035.84V644.452H1036.24V624.863H1044.84V621.414H1036.24V624.092H1035.84V621.414H1036.24V601.825H1044.84V598.367H1036.24V585.698H1035.84V582.512H1010.56L991.991 558.844H979.104V528.09H921.171V531.555H937.711V535.01H921.171V558.047H875.095V585.698H864.047V598.367H855.443V601.825H864.047V621.414H855.443V624.863H864.047V644.452H882.711V647.139H863.778V644.452H855.443V647.91H864.047V667.493H855.443V670.948H864.047V678.424H872.753V844.313H864.047V851.806H855.443V855.264H864.047V874.853H855.443V878.302H864.047V897.894H882.711V900.572H863.778V897.894H855.443V901.349H864.047V920.932H855.443V924.387H864.047V930.718H871.967V1092.58H863.615V1096.02H859.447V1105.25H863.615V1109.86H859.447V1119.08H863.615V1123.68H859.447V1132.89H863.615V1137.51H859.447V1146.72H863.615V1151.32H859.447V1160.54H863.615V1165.15H859.447V1174.36H863.615V1178.97H859.447V1188.19H863.615V1192.79H859.447V1202.01H863.615V1206.62H859.447V1215.84H863.615V1220.45H859.447V1229.66H863.615V1234.26H859.447V1243.49H863.615V1322.6H1033.69V1309.14H1036.24V1086.81H1038.94V1081.44H1049.91V1072.23H1038.94V1067.61H1049.91V1058.4H1038.94V1053.79H1049.91V1044.57H1038.94V1039.96H1049.91V1030.75H1038.94V1026.13H1049.91V1016.92H1038.94V1012.32H1049.91V1003.11H1038.94V998.49H1049.91V989.276H1038.94V984.673H1049.91V975.453H1038.94V970.849H1049.91V961.626H1038.94V957.016H1049.91V947.811H1038.94V943.198H1049.91V933.984H1038.94V931.3H1036.24V924.387H1044.84V920.932H1036.24V901.349H1044.84V897.894H1036.33V900.572H1035.84V897.894H1036.24V878.302H1044.84V874.853H1036.24V877.531H1035.84V874.853H1036.24V855.264H1044.84V851.806H1036.24V833.372H1038.94V828.001H1049.91V818.787H1038.94V814.174H1049.91V804.96H1038.94V800.35H1049.91V791.136H1038.94V786.526H1049.91V777.312H1038.94V772.709H1049.91V763.495H1038.94V758.875H1049.91V749.661H1038.94V745.051H1049.91V735.844H1038.94V731.234H1049.91V722.014H1038.94V717.4H1049.91V708.187H1038.94V703.586H1049.91V694.363H1038.94V689.759H1049.91Z" fill="white"/>
</mask>
<g mask="url(#mask5_30_2323)">
<mask id="mask6_30_2323" style="mask-type:luminance" maskUnits="userSpaceOnUse" x="855" y="528" width="195" height="795">
<path d="M882.711 877.531H864.303V874.853H882.711V877.531ZM864.827 851.806H882.711V854.493H864.827V851.806ZM864.303 670.17V667.493H882.711V670.17H864.303ZM864.303 923.609V920.932H882.711V923.609H864.303ZM864.303 624.092V621.414H882.711V624.092H864.303ZM864.827 598.367H882.711V601.054H864.827V598.367ZM870.844 589.841H877.778V595.369H870.844V589.841ZM882.135 564.961H891.529V572.447H882.135V564.961ZM927.542 551.998H936.94V559.49H927.542V551.998ZM927.542 540.474H936.94V547.967H927.542V540.474ZM964.332 543.357H973.724V550.849H964.332V543.357ZM964.332 531.839H973.724V539.326H964.332V531.839ZM1049.91 689.759V680.539H1038.94V677.861H1036.24V670.948H1044.84V667.493H1036.24V647.91H1044.84V644.452H1036.33V647.139H1035.84V644.452H1036.24V624.863H1044.84V621.414H1036.24V624.092H1035.84V621.414H1036.24V601.825H1044.84V598.367H1036.24V585.698H1035.84V582.512H1010.56L991.991 558.844H979.104V528.09H921.171V531.555H937.711V535.01H921.171V558.047H875.095V585.698H864.047V598.367H855.443V601.825H864.047V621.414H855.443V624.863H864.047V644.452H882.711V647.139H863.778V644.452H855.443V647.91H864.047V667.493H855.443V670.948H864.047V678.424H872.753V844.313H864.047V851.806H855.443V855.264H864.047V874.853H855.443V878.302H864.047V897.894H882.711V900.572H863.778V897.894H855.443V901.349H864.047V920.932H855.443V924.387H864.047V930.718H871.967V1092.58H863.615V1096.02H859.447V1105.25H863.615V1109.86H859.447V1119.08H863.615V1123.68H859.447V1132.89H863.615V1137.51H859.447V1146.72H863.615V1151.32H859.447V1160.54H863.615V1165.15H859.447V1174.36H863.615V1178.97H859.447V1188.19H863.615V1192.79H859.447V1202.01H863.615V1206.62H859.447V1215.84H863.615V1220.45H859.447V1229.66H863.615V1234.26H859.447V1243.49H863.615V1322.6H1033.69V1309.14H1036.24V1086.81H1038.94V1081.44H1049.91V1072.23H1038.94V1067.61H1049.91V1058.4H1038.94V1053.79H1049.91V1044.57H1038.94V1039.96H1049.91V1030.75H1038.94V1026.13H1049.91V1016.92H1038.94V1012.32H1049.91V1003.11H1038.94V998.49H1049.91V989.276H1038.94V984.673H1049.91V975.453H1038.94V970.849H1049.91V961.626H1038.94V957.016H1049.91V947.811H1038.94V943.198H1049.91V933.984H1038.94V931.3H1036.24V924.387H1044.84V920.932H1036.24V901.349H1044.84V897.894H1036.33V900.572H1035.84V897.894H1036.24V878.302H1044.84V874.853H1036.24V877.531H1035.84V874.853H1036.24V855.264H1044.84V851.806H1036.24V833.372H1038.94V828.001H1049.91V818.787H1038.94V814.174H1049.91V804.96H1038.94V800.35H1049.91V791.136H1038.94V786.526H1049.91V777.312H1038.94V772.709H1049.91V763.495H1038.94V758.875H1049.91V749.661H1038.94V745.051H1049.91V735.844H1038.94V731.234H1049.91V722.014H1038.94V717.4H1049.91V708.187H1038.94V703.586H1049.91V694.363H1038.94V689.759H1049.91Z" fill="white"/>
</mask>
<g mask="url(#mask6_30_2323)">
<path d="M855.443 1322.6H1049.91V528.09H855.443V1322.6Z" fill="#E55800"/>
</g>
</g>
</g>
<mask id="mask7_30_2323" style="mask-type:luminance" maskUnits="userSpaceOnUse" x="738" y="501" width="113" height="633">
<path d="M738.553 501.768H850.587V1133.5H738.553V501.768Z" fill="white"/>
</mask>
<g mask="url(#mask7_30_2323)">
<path d="M738.553 1133.5H850.587V501.768H738.553V1133.5Z" fill="#E55800"/>
</g>
<mask id="mask8_30_2323" style="mask-type:luminance" maskUnits="userSpaceOnUse" x="620" y="630" width="115" height="462">
<path d="M666.479 630.639H679.398V635.348H666.479V630.639ZM664.758 635.348H709.99V662.013H664.758V635.348ZM626.42 657.829H636.329V662.013H626.42V657.829ZM620.819 662.013H719.032V669.589H620.819V662.013ZM718.981 669.589H727.857V672.724H718.981V669.589ZM620.819 669.589H718.162V672.724H620.819V669.589ZM620.819 672.724H719.032V679.238H620.819V672.724ZM620.819 679.238H718.162V682.383H620.819V679.238ZM718.981 679.238H727.857V682.383H718.981V679.238ZM620.819 682.383H719.032V683.448H620.819V682.383ZM624.267 683.448H719.032V688.893H624.267V683.448ZM624.267 688.893H718.162V691.293H624.267V688.893ZM620.819 691.293H718.162V692.028H620.819V691.293ZM718.981 688.893H727.857V692.028H718.981V688.893ZM620.819 692.028H719.032V698.542H620.819V692.028ZM620.819 698.542H718.162V701.677H620.819V698.542ZM718.981 698.542H727.857V701.677H718.981V698.542ZM620.819 701.677H719.032V708.188H620.819V701.677ZM718.981 708.188H727.857V711.333H718.981V708.188ZM620.819 708.188H718.162V711.333H620.819V708.188ZM620.819 711.333H719.032V714.813H620.819V711.333ZM624.267 714.813H719.032V717.846H624.267V714.813ZM624.267 717.846H718.162V720.981H624.267V717.846ZM718.981 717.846H727.857V720.981H718.981V717.846ZM624.267 720.981H719.032V722.661H624.267V720.981ZM620.819 722.661H719.032V727.492H620.819V722.661ZM718.981 727.492H727.857V728.41H718.981V727.492ZM718.981 728.41H734.107V730.63H718.981V728.41ZM620.819 727.492H718.162V730.63H620.819V727.492ZM620.819 730.63H734.107V731.024H620.819V730.63ZM620.819 731.024H719.032V737.297H620.819V731.024ZM620.819 737.297H733.247V746.182H620.819V737.297ZM624.267 746.182H733.247V754.02H624.267V746.182ZM620.819 754.02H733.247V760.818H620.819V754.02ZM620.819 760.818H719.032V766.1H620.819V760.818ZM718.981 766.1H727.857V769.238H718.981V766.1ZM620.819 766.1H718.162V769.238H620.819V766.1ZM620.819 769.238H719.032V775.755H620.819V769.238ZM620.819 775.755H718.162V777.55H620.819V775.755ZM624.267 777.55H718.162V778.894H624.267V777.55ZM718.981 775.755H727.857V778.894H718.981V775.755ZM624.267 778.894H719.032V785.394H624.267V778.894ZM620.819 785.394H719.032V785.404H620.819V785.394ZM718.981 785.404H727.857V788.539H718.981V785.404ZM620.819 785.404H718.162V788.539H620.819V785.404ZM620.819 788.539H719.032V795.059H620.819V788.539ZM620.819 795.059H718.162V798.198H620.819V795.059ZM718.981 795.059H727.857V798.198H718.981V795.059ZM620.819 798.198H719.032V804.715H620.819V798.198ZM620.819 804.715H718.162V807.853H620.819V804.715ZM718.981 804.715H727.857V807.853H718.981V804.715ZM620.819 807.853H719.032V814.363H620.819V807.853ZM620.819 814.363H718.162V817.502H620.819V814.363ZM718.981 814.363H727.857V817.502H718.981V814.363ZM620.819 817.502H719.032V824.012H620.819V817.502ZM718.981 824.012H727.857V827.147H718.981V824.012ZM620.819 824.012H718.162V827.147H620.819V824.012ZM620.819 827.147H719.032V833.667H620.819V827.147ZM620.819 833.667H718.162V836.796H620.819V833.667ZM718.981 833.667H727.857V836.796H718.981V833.667ZM620.819 836.796H719.032V843.323H620.819V836.796ZM620.819 843.323H718.162V846.461H620.819V843.323ZM718.981 843.323H727.857V846.461H718.981V843.323ZM620.819 846.461H719.032V862.62H620.819V846.461ZM620.819 862.62H718.162V865.756H620.819V862.62ZM718.981 862.62H727.857V865.756H718.981V862.62ZM620.819 865.756H719.032V872.276H620.819V865.756ZM718.981 872.276H727.857V875.411H718.981V872.276ZM620.819 872.276H718.162V875.411H620.819V872.276ZM620.819 875.411H719.032V881.924H620.819V875.411ZM718.981 881.924H727.857V885.06H718.981V881.924ZM620.819 881.924H718.162V885.06H620.819V881.924ZM620.819 885.06H719.032V891.58H620.819V885.06ZM620.819 891.58H718.162V894.715H620.819V891.58ZM718.981 891.58H727.857V894.715H718.981V891.58ZM620.819 894.715H719.032V901.219H620.819V894.715ZM718.981 901.219H727.857V904.373H718.981V901.219ZM620.819 901.219H718.162V904.373H620.819V901.219ZM620.819 904.373H719.032V910.884H620.819V904.373ZM620.819 910.884H718.162V914.019H620.819V910.884ZM718.981 910.884H727.857V914.019H718.981V910.884ZM620.819 914.019H719.032V920.529H620.819V914.019ZM620.819 920.529H718.162V923.668H620.819V920.529ZM718.981 920.529H727.857V923.668H718.981V920.529ZM620.819 923.668H719.032V930.178H620.819V923.668ZM718.981 930.178H727.857V933.317H718.981V930.178ZM620.819 930.178H718.162V933.317H620.819V930.178ZM620.819 933.317H719.032V959.131H620.819V933.317ZM620.819 959.131H718.162V962.276H620.819V959.131ZM718.981 959.131H727.857V962.276H718.981V959.131ZM620.819 962.276H719.032V968.793H620.819V962.276ZM718.981 968.793H727.857V971.931H718.981V968.793ZM620.819 968.793H718.162V971.931H620.819V968.793ZM620.819 971.931H719.032V978.442H620.819V971.931ZM620.819 978.442H718.162V981.58H620.819V978.442ZM718.981 978.442H727.857V981.58H718.981V978.442ZM620.819 981.58H719.032V988.091H620.819V981.58ZM718.981 988.091H727.857V991.235H718.981V988.091ZM620.819 988.091H718.162V991.235H620.819V988.091ZM620.819 991.235H719.032V997.746H620.819V991.235ZM620.819 997.746H718.162V1000.87H620.819V997.746ZM718.981 997.746H727.857V1000.87H718.981V997.746ZM620.819 1000.87H719.032V1007.39H620.819V1000.87ZM620.819 1007.39H718.162V1010.53H620.819V1007.39ZM718.981 1007.39H727.857V1010.53H718.981V1007.39ZM620.819 1010.53H719.032V1026.7H620.819V1010.53ZM718.981 1026.7H727.857V1029.83H718.981V1026.7ZM620.819 1026.7H718.162V1029.83H620.819V1026.7ZM620.819 1029.83H719.032V1036.35H620.819V1029.83ZM620.819 1036.35H718.162V1039.49H620.819V1036.35ZM718.981 1036.35H727.857V1039.49H718.981V1036.35ZM620.819 1039.49H719.032V1066.66H620.819V1039.49ZM647.48 1066.66H718.162V1091.01H647.48V1066.66Z" fill="white"/>
</mask>
<g mask="url(#mask8_30_2323)">
<path d="M620.819 1091.01H734.107V630.639H620.819V1091.01Z" fill="#E55800"/>
</g>
<mask id="mask9_30_2323" style="mask-type:luminance" maskUnits="userSpaceOnUse" x="520" y="616" width="91" height="662">
<path d="M520.895 616.086H535.749V617.878H520.895V616.086ZM520.895 617.878H525.581V620.728H520.895V617.878ZM531.313 617.878H535.749V620.728H531.313V617.878ZM520.895 620.728H535.749V626.656H520.895V620.728ZM531.313 626.656H535.749V626.765H531.313V626.656ZM531.313 626.765H604.631V629.516H531.313V626.765ZM520.895 626.656H525.581V629.516H520.895V626.656ZM520.895 629.516H604.631V635.454H520.895V629.516ZM531.313 635.454H604.631V638.305H531.313V635.454ZM520.895 635.454H525.581V638.305H520.895V635.454ZM520.895 638.305H604.631V640.794H520.895V638.305ZM520.895 640.794H610.894V643.634H520.895V640.794ZM520.895 643.634H604.631V644.242H520.895V643.634ZM520.895 644.242H525.581V647.099H520.895V644.242ZM531.313 644.242H604.631V647.099H531.313V644.242ZM520.895 647.099H604.631V649.115H520.895V647.099ZM520.895 649.115H610.894V651.972H520.895V649.115ZM520.895 651.972H604.631V653.021H520.895V651.972ZM520.895 653.021H525.581V655.887H520.895V653.021ZM531.313 653.021H604.631V655.887H531.313V653.021ZM520.895 655.887H604.631V657.452H520.895V655.887ZM520.895 657.452H610.894V660.293H520.895V657.452ZM520.895 660.293H604.631V661.819H520.895V660.293ZM520.895 661.819H525.581V664.676H520.895V661.819ZM531.313 661.819H604.631V664.676H531.313V661.819ZM520.895 664.676H604.631V665.783H520.895V664.676ZM520.895 665.783H610.894V668.624H520.895V665.783ZM520.895 668.624H604.631V670.613H520.895V668.624ZM520.895 670.613H525.581V673.464H520.895V670.613ZM531.313 670.613H604.631V673.464H531.313V670.613ZM520.895 673.464H604.631V674.11H520.895V673.464ZM520.895 674.11H610.894V676.961H520.895V674.11ZM520.895 676.961H604.631V679.392H520.895V676.961ZM531.313 679.392H604.631V682.252H531.313V679.392ZM520.895 679.392H525.581V682.252H520.895V679.392ZM520.895 682.252H604.631V682.268H520.895V682.252ZM521.141 682.268H604.631V688.18H521.141V682.268ZM521.141 688.18H525.581V691.04H521.141V688.18ZM531.313 688.18H604.631V691.04H531.313V688.18ZM521.141 691.04H604.631V696.978H521.141V691.04ZM531.313 696.978H604.631V699.106H531.313V696.978ZM531.313 699.106H610.894V699.829H531.313V699.106ZM521.141 696.978H525.581V699.829H521.141V696.978ZM521.141 699.829H610.894V701.95H521.141V699.829ZM521.141 701.95H604.631V705.766H521.141V701.95ZM531.313 705.766H604.631V707.436H531.313V705.766ZM531.313 707.436H610.894V708.623H531.313V707.436ZM521.141 705.766H525.581V708.623H521.141V705.766ZM521.141 708.623H610.894V710.277H521.141V708.623ZM521.141 710.277H604.631V714.561H521.141V710.277ZM531.313 714.561H604.631V715.758H531.313V714.561ZM531.313 715.758H610.894V717.412H531.313V715.758ZM521.141 714.561H525.581V717.412H521.141V714.561ZM521.141 717.412H610.894V718.608H521.141V717.412ZM521.141 718.608H604.631V723.34H521.141V718.608ZM531.313 723.34H604.631V724.085H531.313V723.34ZM531.313 724.085H610.894V726.2H531.313V724.085ZM521.141 723.34H525.581V726.2H521.141V723.34ZM521.141 726.2H610.894V726.936H521.141V726.2ZM521.141 726.936H604.631V732.128H521.141V726.936ZM531.313 732.128H604.631V732.422H531.313V732.128ZM531.313 732.422H610.894V734.988H531.313V732.422ZM521.141 732.128H525.581V734.988H521.141V732.128ZM521.141 734.988H610.894V735.266H521.141V734.988ZM521.141 735.266H604.631V740.753H521.141V735.266ZM521.141 740.753H610.894V740.926H521.141V740.753ZM531.313 740.926H610.894V743.594H531.313V740.926ZM531.313 743.594H604.631V743.773H531.313V743.594ZM521.141 740.926H525.581V743.773H521.141V740.926ZM521.141 743.773H604.631V749.074H521.141V743.773ZM521.141 749.074H610.894V749.711H521.141V749.074ZM531.313 749.711H610.894V751.915H531.313V749.711ZM531.313 751.915H604.631V752.571H531.313V751.915ZM521.141 749.711H525.581V752.571H521.141V749.711ZM521.141 752.571H604.631V758.499H521.141V752.571ZM531.313 758.499H604.631V761.35H531.313V758.499ZM521.141 758.499H525.581V761.35H521.141V758.499ZM521.141 761.35H604.631V767.287H521.141V761.35ZM521.141 767.287H525.581V770.148H521.141V767.287ZM531.313 767.287H604.631V770.148H531.313V767.287ZM521.141 770.148H604.631V774.06H521.141V770.148ZM521.141 774.06H610.894V776.076H521.141V774.06ZM531.313 776.076H610.894V776.911H531.313V776.076ZM531.313 776.911H604.631V778.926H531.313V776.911ZM521.141 776.076H525.581V778.926H521.141V776.076ZM521.141 778.926H604.631V782.397H521.141V778.926ZM521.141 782.397H610.894V784.864H521.141V782.397ZM531.313 784.864H610.894V785.248H531.313V784.864ZM531.313 785.248H604.631V787.721H531.313V785.248ZM521.141 784.864H525.581V787.721H521.141V784.864ZM521.141 787.721H604.631V793.659H521.141V787.721ZM521.141 793.659H525.581V796.509H521.141V793.659ZM531.313 793.659H604.631V796.509H531.313V793.659ZM521.141 796.509H604.631V799.065H521.141V796.509ZM521.141 799.065H610.894V801.9H521.141V799.065ZM521.141 801.9H604.631V802.447H521.141V801.9ZM521.141 802.447H525.581V805.297H521.141V802.447ZM531.313 802.447H604.631V805.297H531.313V802.447ZM521.141 805.297H604.631V807.386H521.141V805.297ZM521.141 807.386H610.894V810.237H521.141V807.386ZM521.141 810.237H604.631V811.235H521.141V810.237ZM531.313 811.235H604.631V814.086H531.313V811.235ZM521.141 811.235H525.581V814.086H521.141V811.235ZM521.141 814.086H604.631V815.717H521.141V814.086ZM521.141 815.717H610.894V818.558H521.141V815.717ZM521.141 818.558H604.631V820.023H521.141V818.558ZM521.141 820.023H525.581V822.883H521.141V820.023ZM531.313 820.023H604.631V822.883H531.313V820.023ZM521.141 822.883H604.631V824.045H521.141V822.883ZM521.141 824.045H610.894V826.895H521.141V824.045ZM521.141 826.895H604.631V828.812H521.141V826.895ZM521.141 828.812H525.581V831.668H521.141V828.812ZM531.313 828.812H604.631V831.668H531.313V828.812ZM521.141 831.668H604.631V837.6H521.141V831.668ZM521.141 837.6H525.581V840.457H521.141V837.6ZM531.313 837.6H604.631V840.457H531.313V837.6ZM521.141 840.457H604.631V840.713H521.141V840.457ZM521.141 840.713H610.894V843.563H521.141V840.713ZM521.141 843.563H604.631V846.394H521.141V843.563ZM531.313 846.394H604.631V849.034H531.313V846.394ZM531.313 849.034H610.894V849.255H531.313V849.034ZM521.141 846.394H525.581V849.255H521.141V846.394ZM521.141 849.255H610.894V851.881H521.141V849.255ZM521.141 851.881H604.631V855.183H521.141V851.881ZM531.313 855.183H604.631V857.361H531.313V855.183ZM531.313 857.361H610.894V858.033H531.313V857.361ZM521.141 855.183H525.581V858.033H521.141V855.183ZM521.141 858.033H610.894V860.212H521.141V858.033ZM521.141 860.212H604.631V863.961H521.141V860.212ZM531.313 863.961H604.631V865.692H531.313V863.961ZM531.313 865.692H610.894V866.822H531.313V865.692ZM521.141 863.961H525.581V866.822H521.141V863.961ZM521.141 866.822H610.894V868.543H521.141V866.822ZM521.141 868.543H604.631V872.759H521.141V868.543ZM521.141 872.759H525.581V875.61H521.141V872.759ZM531.313 872.759H604.631V875.61H531.313V872.759ZM521.141 875.61H604.631V881.548H521.141V875.61ZM531.313 881.548H604.631V882.351H531.313V881.548ZM531.313 882.351H610.894V884.404H531.313V882.351ZM521.141 881.548H525.581V884.404H521.141V881.548ZM521.141 884.404H610.894V885.191H521.141V884.404ZM521.141 885.191H604.631V890.342H521.141V885.191ZM521.141 890.342H525.581V893.193H521.141V890.342ZM531.313 890.342H604.631V893.193H531.313V890.342ZM521.141 893.193H604.631V899.13H521.141V893.193ZM521.141 899.13H525.581V901.981H521.141V899.13ZM531.313 899.13H604.631V901.981H531.313V899.13ZM521.141 901.981H604.631V907.336H521.141V901.981ZM521.141 907.336H610.894V907.919H521.141V907.336ZM531.313 907.919H610.894V910.187H531.313V907.919ZM531.313 910.187H604.631V910.769H531.313V910.187ZM521.141 907.919H525.581V910.769H521.141V907.919ZM521.141 910.769H604.631V915.667H521.141V910.769ZM521.141 915.667H610.894V916.707H521.141V915.667ZM531.313 916.707H610.894V918.518H531.313V916.707ZM531.313 918.518H604.631V919.564H531.313V918.518ZM521.141 916.707H525.581V919.564H521.141V916.707ZM521.141 919.564H604.631V924.004H521.141V919.564ZM521.141 924.004H610.894V925.495H521.141V924.004ZM531.313 925.495H610.894V926.855H531.313V925.495ZM531.313 926.855H604.631V928.352H531.313V926.855ZM521.141 925.495H525.581V928.352H521.141V925.495ZM521.141 928.352H604.631V932.332H521.141V928.352ZM521.141 932.332H610.894V934.283H521.141V932.332ZM531.313 934.283H610.894V935.176H531.313V934.283ZM531.313 935.176H604.631V937.134H531.313V935.176ZM521.141 934.283H525.581V937.134H521.141V934.283ZM521.141 937.134H604.631V940.663H521.141V937.134ZM521.141 940.663H610.894V943.072H521.141V940.663ZM531.313 943.072H610.894V943.513H531.313V943.072ZM531.313 943.513H604.631V945.919H531.313V943.513ZM521.141 943.072H525.581V945.919H521.141V943.072ZM521.141 945.919H604.631V957.321H521.141V945.919ZM521.141 957.321H610.894V960.162H521.141V957.321ZM521.141 960.162H604.631V965.649H521.141V960.162ZM521.141 965.649H610.894V968.499H521.141V965.649ZM521.141 968.499H604.631V973.979H521.141V968.499ZM521.141 973.979H610.894V976.83H521.141V973.979ZM521.141 976.83H604.631V1277.08H521.141V976.83Z" fill="white"/>
</mask>
<g mask="url(#mask9_30_2323)">
<path d="M520.895 1277.08H610.894V616.086H520.895V1277.08Z" fill="#E55800"/>
</g>
<mask id="mask10_30_2323" style="mask-type:luminance" maskUnits="userSpaceOnUse" x="457" y="746" width="78" height="313">
<path d="M457.109 746.371H534.08V1058.41H457.109V746.371Z" fill="white"/>
</mask>
<g mask="url(#mask10_30_2323)">
<mask id="mask11_30_2323" style="mask-type:luminance" maskUnits="userSpaceOnUse" x="457" y="747" width="77" height="312">
<path d="M493.022 769.156V776.838H484.597V769.156H493.022ZM484.597 752.555H493.022V762.137H484.597V752.555ZM509.876 769.156V776.838H501.448V769.156H509.876ZM501.448 752.555H509.876V762.137H501.448V752.555ZM516.081 772.122V747.133H482.87L466.263 765.691L466.394 765.839H457.918V1058.03H533.744V772.122H516.081Z" fill="white"/>
</mask>
<g mask="url(#mask11_30_2323)">
<mask id="mask12_30_2323" style="mask-type:luminance" maskUnits="userSpaceOnUse" x="457" y="747" width="77" height="312">
<path d="M493.022 769.156V776.838H484.597V769.156H493.022ZM484.597 752.555H493.022V762.137H484.597V752.555ZM509.876 769.156V776.838H501.448V769.156H509.876ZM501.448 752.555H509.876V762.137H501.448V752.555ZM516.081 772.122V747.133H482.87L466.263 765.691L466.394 765.839H457.918V1058.03H533.744V772.122H516.081Z" fill="white"/>
</mask>
<g mask="url(#mask12_30_2323)">
<path d="M457.918 1058.03H533.744V747.133H457.918V1058.03Z" fill="#E55800"/>
</g>
</g>
</g>
<mask id="mask13_30_2323" style="mask-type:luminance" maskUnits="userSpaceOnUse" x="328" y="90" width="129" height="1007">
<path d="M328.551 90.3516H456.29V1096.08H328.551V90.3516Z" fill="white"/>
</mask>
<g mask="url(#mask13_30_2323)">
<mask id="mask14_30_2323" style="mask-type:luminance" maskUnits="userSpaceOnUse" x="329" y="90" width="127" height="1006">
<path d="M450.942 461.647V460.771H453.955V461.647H450.942ZM451.214 469.13H450.942V468.263H451.214V469.13ZM453.955 504.382H450.942V503.506H453.955V504.382ZM451.214 511.885H450.942V511.008H451.214V511.885ZM453.955 545.659V546.535H450.942V545.659H453.955ZM451.214 554.022H450.942V553.145H451.214V554.022ZM453.955 588.352V589.229H450.942V588.352H453.955ZM451.214 596.715H450.942V595.839H451.214V596.715ZM453.955 631.04V631.906H450.942V631.04H453.955ZM451.214 639.393H450.942V638.526H451.214V639.393ZM453.955 673.717V674.594H450.942V673.717H453.955ZM451.214 682.089H450.942V681.213H451.214V682.089ZM453.955 716.414V717.287H450.942V716.414H453.955ZM451.214 724.773H450.942V723.897H451.214V724.773ZM453.955 759.098V759.984H450.942V759.098H453.955ZM451.214 767.461H450.942V766.584H451.214V767.461ZM453.955 801.785V802.668H450.942V801.785H453.955ZM451.214 810.148H450.942V809.271H451.214V810.148ZM453.955 844.463V845.349H450.942V844.463H453.955ZM451.214 852.841H450.942V851.965H451.214V852.841ZM453.955 887.166V888.033H450.942V887.166H453.955ZM451.214 895.519H450.942V894.652H451.214V895.519ZM453.955 929.853V930.73H450.942V929.853H453.955ZM451.214 938.206H450.942V937.339H451.214V938.206ZM453.955 970.752V971.628H450.942V970.752H453.955ZM451.214 979.124H450.942V978.248H451.214V979.124ZM453.955 1011.44V1012.32H450.942V1011.44H453.955ZM451.214 1019.8H450.942V1018.94H451.214V1019.8ZM453.955 1051.92V1052.78H450.942V1051.92H453.955ZM451.214 1060.28H450.942V1059.39H451.214V1060.28ZM331.071 1052.78V1051.92H333.924V1052.78H331.071ZM331.071 1012.32V1011.44H333.924V1012.32H331.071ZM331.071 971.628V970.752H333.924V971.628H331.071ZM331.071 930.73V929.853H333.924V930.73H331.071ZM331.071 888.033V887.166H333.924V888.033H331.071ZM331.071 845.349V844.463H333.924V845.349H331.071ZM331.071 802.668V801.785H333.924V802.668H331.071ZM331.071 759.984V759.098H333.924V759.984H331.071ZM331.071 717.287V716.414H333.924V717.287H331.071ZM331.071 674.594V673.717H333.924V674.594H331.071ZM331.071 631.906V631.04H333.924V631.906H331.071ZM331.071 589.229V588.352H333.924V589.229H331.071ZM331.071 546.535V545.659H333.924V546.535H331.071ZM331.071 504.382V503.506H333.924V504.382H331.071ZM331.071 461.647V460.771H333.924V461.647H331.071ZM331.071 418.903V418.026H333.924V418.903H331.071ZM335.124 380.704V379.885H337.824V380.704H335.124ZM449.902 379.885V380.704H447.193V379.885H449.902ZM447.343 387.697H447.193V386.878H447.343V387.697ZM453.955 418.903H450.942V418.026H453.955V418.903ZM451.214 426.395H450.942V425.518H451.214V426.395ZM340.619 346.411V345.666H342.769V346.411H340.619ZM444.398 345.666V346.411H441.794V345.666H444.398ZM442.088 352.736H441.794V351.997H442.088V352.736ZM352.796 322.702V322.104H352.956V322.702H352.796ZM350.752 317.74V317.142H352.956V317.74H350.752ZM434.271 317.142V317.74H432.355V317.142H434.271ZM432.406 322.859H432.355V322.251H432.406V322.859ZM368.156 302.342V301.974H368.399V302.342H368.156ZM366.899 299.287V298.929H368.399V299.287H366.899ZM368.156 286.193V285.831H368.399V286.193H368.156ZM366.899 283.128V282.753H368.399V283.128H366.899ZM368.156 269.886V269.518H368.399V269.886H368.156ZM366.899 266.805V266.437H368.399V266.805H366.899ZM418.124 266.437V266.805H416.912V266.437H418.124ZM416.976 269.992H416.912V269.608H416.976V269.992ZM368.399 277.248H368.249V270.369H368.399V277.248ZM418.124 282.753V283.128H416.912V282.753H418.124ZM416.976 286.288H416.912V285.914H416.976V286.288ZM368.399 293.512H368.249V286.676H368.399V293.512ZM418.124 298.929V299.287H416.912V298.929H418.124ZM416.976 302.432H416.912V302.064H416.976V302.432ZM368.399 309.608H368.249V302.809H368.399V309.608ZM376.52 255.218V254.987H377.54V255.218H376.52ZM408.497 254.987V255.218H407.62V254.987H408.497ZM407.62 256.987H407.783V257.214H407.62V256.987ZM377.54 257.16H377.307V256.929H377.54V257.16ZM377.54 261.77H377.374V257.454H377.54V261.77ZM377.374 250.918V246.609H377.54V250.918H377.374ZM377.307 246.308V246.068H377.54V246.308H377.307ZM376.52 244.372V244.136H377.54V244.372H376.52ZM408.497 244.136V244.372H407.62V244.136H408.497ZM407.783 246.362H407.62V246.135H407.783V246.362ZM377.374 240.14V235.824H377.54V240.14H377.374ZM377.307 235.53V235.29H377.54V235.53H377.307ZM376.52 233.594V233.357H377.54V233.594H376.52ZM377.307 224.758V224.521H377.54V224.758H377.307ZM376.52 222.794V222.557H377.54V222.794H376.52ZM383.151 215.544V215.407H383.538V215.544H383.151ZM383.151 209.786V209.648H383.538V209.786H383.151ZM383.151 204.408V204.277H383.538V204.408H383.151ZM383.151 199.247V199.116H383.538V199.247H383.151ZM401.866 199.116V199.247H401.476V199.116H401.866ZM401.866 204.277V204.408H401.476V204.277H401.866ZM401.866 209.648V209.786H401.476V209.648H401.866ZM401.866 215.407V215.544H401.476V215.407H401.866ZM408.497 222.557V222.794H407.62V222.557H408.497ZM407.783 224.825H407.62V224.585H407.783V224.825ZM377.54 229.451H377.374V225.062H377.54V229.451ZM408.497 233.357V233.594H407.62V233.357H408.497ZM407.783 235.584H407.62V235.357H407.783V235.584ZM455.791 458.215H454.342V455.863H450.942V450.818H453.171V445.472H451.844V425.848L455.791 415.454H454.342V412.882H447.193V410.508H449.17V405.52H447.929V387.192L451.614 377.485H447.193V377.239H450.264V375.307H441.759V374.593H441.794V373.365H443.739V368.854H442.622V352.269L445.955 343.507H441.794V343.283H444.737V341.523H441.794V340.845H432.137V339.523H433.737V335.873H432.841V322.475L435.521 315.389H432.355V315.216H434.533V313.792H432.355V313.555H416.813V312.679H417.795V310.433H417.245V302.205L418.889 297.854H416.912V297.732H418.281V296.862H416.912V296.593H417.795V294.341H417.245V286.061L418.889 281.678H416.912V281.563H418.281V280.687H416.912V280.351H417.795V278.083H417.245V269.745L418.889 265.35H416.912V265.234H418.281V264.348H416.912V263.325H408.289V262.294H407.943V257.076L408.979 254.309H407.62V254.242H408.596V253.685H407.684V252.866H408.289V251.443H407.943V246.215L408.979 243.448H407.62V243.39H408.596V242.834H407.684V242.088H408.289V240.664H407.943V235.447L408.979 232.679H408.596V232.343H407.684V231.435H408.289V229.982H407.943V224.678L408.979 221.859H408.596V221.261H407.62V220.599H401.741V220.074H401.543V216.757L402.141 214.997H401.476V214.962H401.93V214.636H401.741V213.922H401.543V210.867L402.141 209.255H401.741V209.213H401.93V208.893H401.741V208.452H401.543V205.47L402.141 203.889H401.741V203.291H401.543V200.303L402.141 198.723H401.476V197.657H399.032V173.727H396.595V151.998H393.988V90.9922H391.032V151.998H388.425V173.727H385.991V197.657H383.538V198.723H382.869L383.48 200.303V203.291H383.279V203.889H382.869L383.48 205.47V208.452H383.279V208.893H383.093V209.213H383.279V209.255H382.869L383.48 210.867V213.922H383.279V214.636H383.093V214.962H383.538V214.997H382.869L383.48 216.757V220.074H383.279V220.599H377.54V221.261H376.424V221.859H376.04L377.067 224.678V229.982H376.725V231.435H377.339V232.343H376.424V232.679H376.04L377.067 235.447V240.664H376.725V242.088H377.339V242.834H376.424V243.39H377.54V243.448H376.04L377.067 246.215V251.443H376.725V252.866H377.339V253.685H376.424V254.242H377.54V254.309H376.04L377.067 257.076V262.294H376.725V263.325H368.399V264.348H366.732V265.234H368.399V265.35H366.128L367.775 269.745V278.083H367.222V280.351H368.197V280.687H366.732V281.563H368.197V281.678H366.128L367.775 286.061V294.341H367.222V296.593H368.197V296.862H366.732V297.732H368.197V297.854H366.128L367.775 302.205V310.433H367.222V312.679H368.197V313.555H352.956V313.792H350.484V315.216H352.956V315.389H349.498L352.182 322.475V335.873H351.28V339.523H352.879V340.845H342.769V341.523H340.283V343.283H342.769V343.507H339.065L342.388 352.269V368.854H341.278V373.365H342.769V374.593H343.264V375.307H334.756V377.239H337.824V377.485H333.4L337.088 387.192V405.52H335.853V410.508H337.824V412.882H330.671V415.454H329.226L333.17 425.848V445.472H331.845V450.818H333.924V455.863H330.671V458.215H329.226L333.17 468.59V488.223H331.845V493.563H333.924V498.608H330.671V500.94H329.226L333.17 511.334V530.965H331.845V536.307H333.924V540.761H330.671V543.103H329.226L333.17 553.471V573.079H331.845V578.412H333.924V581.605H330.671V585.79H329.226L333.17 596.168V615.766H331.845V621.106H333.924V625.217H330.671V628.477H329.226L333.17 638.852V657.983H331.845V663.793H333.924V668.829H330.671V671.164H329.226L333.17 681.539V701.138H331.845V706.477H333.924V710.818H330.671V713.848H329.226L333.17 724.226V743.825H331.845V749.155H333.924V754.209H330.671V756.535H329.226L333.17 766.91V786.051H331.845V791.851H333.924V799.229H329.226L333.17 809.607V829.196H331.845V834.555H333.924V841.916H329.226L333.17 852.285V871.662H331.845V877.223H333.924V882.268H330.671V884.594H329.226L333.17 894.972V914.11H331.845V920.262H333.924V924.945H330.671V927.287H329.226L333.17 937.665V957.273H331.845V962.597H333.924V965.863H330.671V968.199H329.226L333.17 978.574V997.83H331.845V1003.51H333.924V1006.55H330.671V1008.89H329.226L333.17 1019.26V1038.86H331.845V1044.19H333.924V1047.02H330.671V1049.34H329.226L333.17 1059.72V1078.97H331.845V1084.67H333.924V1095.5H450.942V1084.67H453.171V1078.97H451.844V1059.72L455.791 1049.34H454.342V1047.02H450.942V1044.19H453.171V1038.86H451.844V1019.26L455.791 1008.89H454.342V1006.55H450.942V1003.51H453.171V997.83H451.844V978.574L455.791 968.199H454.342V965.863H450.942V962.597H453.171V957.273H451.844V937.665L455.791 927.287H454.342V924.945H450.942V920.262H453.171V914.11H451.844V894.972L455.791 884.594H454.342V882.268H450.942V877.223H453.171V871.662H451.844V852.285L455.791 841.916H450.942V834.555H453.171V829.196H451.844V809.607L455.791 799.229H450.942V791.851H453.171V786.051H451.844V766.91L455.791 756.535H454.342V754.209H450.942V749.155H453.171V743.825H451.844V724.226L455.791 713.848H454.342V710.818H450.942V706.477H453.171V701.138H451.844V681.539L455.791 671.164H454.342V668.829H450.942V663.793H453.171V657.983H451.844V638.852L455.791 628.477H454.342V625.217H450.942V621.106H453.171V615.766H451.844V596.168L455.791 585.79H454.342V581.605H450.942V578.412H453.171V573.079H451.844V553.471L455.791 543.103H454.342V540.761H450.942V536.307H453.171V530.965H451.844V511.334L455.791 500.94H454.342V498.608H450.942V493.563H453.171V488.223H451.844V468.59L455.791 458.215Z" fill="white"/>
</mask>
<g mask="url(#mask14_30_2323)">
<mask id="mask15_30_2323" style="mask-type:luminance" maskUnits="userSpaceOnUse" x="329" y="90" width="127" height="1006">
<path d="M450.942 461.647V460.771H453.955V461.647H450.942ZM451.214 469.13H450.942V468.263H451.214V469.13ZM453.955 504.382H450.942V503.506H453.955V504.382ZM451.214 511.885H450.942V511.008H451.214V511.885ZM453.955 545.659V546.535H450.942V545.659H453.955ZM451.214 554.022H450.942V553.145H451.214V554.022ZM453.955 588.352V589.229H450.942V588.352H453.955ZM451.214 596.715H450.942V595.839H451.214V596.715ZM453.955 631.04V631.906H450.942V631.04H453.955ZM451.214 639.393H450.942V638.526H451.214V639.393ZM453.955 673.717V674.594H450.942V673.717H453.955ZM451.214 682.089H450.942V681.213H451.214V682.089ZM453.955 716.414V717.287H450.942V716.414H453.955ZM451.214 724.773H450.942V723.897H451.214V724.773ZM453.955 759.098V759.984H450.942V759.098H453.955ZM451.214 767.461H450.942V766.584H451.214V767.461ZM453.955 801.785V802.668H450.942V801.785H453.955ZM451.214 810.148H450.942V809.271H451.214V810.148ZM453.955 844.463V845.349H450.942V844.463H453.955ZM451.214 852.841H450.942V851.965H451.214V852.841ZM453.955 887.166V888.033H450.942V887.166H453.955ZM451.214 895.519H450.942V894.652H451.214V895.519ZM453.955 929.853V930.73H450.942V929.853H453.955ZM451.214 938.206H450.942V937.339H451.214V938.206ZM453.955 970.752V971.628H450.942V970.752H453.955ZM451.214 979.124H450.942V978.248H451.214V979.124ZM453.955 1011.44V1012.32H450.942V1011.44H453.955ZM451.214 1019.8H450.942V1018.94H451.214V1019.8ZM453.955 1051.92V1052.78H450.942V1051.92H453.955ZM451.214 1060.28H450.942V1059.39H451.214V1060.28ZM331.071 1052.78V1051.92H333.924V1052.78H331.071ZM331.071 1012.32V1011.44H333.924V1012.32H331.071ZM331.071 971.628V970.752H333.924V971.628H331.071ZM331.071 930.73V929.853H333.924V930.73H331.071ZM331.071 888.033V887.166H333.924V888.033H331.071ZM331.071 845.349V844.463H333.924V845.349H331.071ZM331.071 802.668V801.785H333.924V802.668H331.071ZM331.071 759.984V759.098H333.924V759.984H331.071ZM331.071 717.287V716.414H333.924V717.287H331.071ZM331.071 674.594V673.717H333.924V674.594H331.071ZM331.071 631.906V631.04H333.924V631.906H331.071ZM331.071 589.229V588.352H333.924V589.229H331.071ZM331.071 546.535V545.659H333.924V546.535H331.071ZM331.071 504.382V503.506H333.924V504.382H331.071ZM331.071 461.647V460.771H333.924V461.647H331.071ZM331.071 418.903V418.026H333.924V418.903H331.071ZM335.124 380.704V379.885H337.824V380.704H335.124ZM449.902 379.885V380.704H447.193V379.885H449.902ZM447.343 387.697H447.193V386.878H447.343V387.697ZM453.955 418.903H450.942V418.026H453.955V418.903ZM451.214 426.395H450.942V425.518H451.214V426.395ZM340.619 346.411V345.666H342.769V346.411H340.619ZM444.398 345.666V346.411H441.794V345.666H444.398ZM442.088 352.736H441.794V351.997H442.088V352.736ZM352.796 322.702V322.104H352.956V322.702H352.796ZM350.752 317.74V317.142H352.956V317.74H350.752ZM434.271 317.142V317.74H432.355V317.142H434.271ZM432.406 322.859H432.355V322.251H432.406V322.859ZM368.156 302.342V301.974H368.399V302.342H368.156ZM366.899 299.287V298.929H368.399V299.287H366.899ZM368.156 286.193V285.831H368.399V286.193H368.156ZM366.899 283.128V282.753H368.399V283.128H366.899ZM368.156 269.886V269.518H368.399V269.886H368.156ZM366.899 266.805V266.437H368.399V266.805H366.899ZM418.124 266.437V266.805H416.912V266.437H418.124ZM416.976 269.992H416.912V269.608H416.976V269.992ZM368.399 277.248H368.249V270.369H368.399V277.248ZM418.124 282.753V283.128H416.912V282.753H418.124ZM416.976 286.288H416.912V285.914H416.976V286.288ZM368.399 293.512H368.249V286.676H368.399V293.512ZM418.124 298.929V299.287H416.912V298.929H418.124ZM416.976 302.432H416.912V302.064H416.976V302.432ZM368.399 309.608H368.249V302.809H368.399V309.608ZM376.52 255.218V254.987H377.54V255.218H376.52ZM408.497 254.987V255.218H407.62V254.987H408.497ZM407.62 256.987H407.783V257.214H407.62V256.987ZM377.54 257.16H377.307V256.929H377.54V257.16ZM377.54 261.77H377.374V257.454H377.54V261.77ZM377.374 250.918V246.609H377.54V250.918H377.374ZM377.307 246.308V246.068H377.54V246.308H377.307ZM376.52 244.372V244.136H377.54V244.372H376.52ZM408.497 244.136V244.372H407.62V244.136H408.497ZM407.783 246.362H407.62V246.135H407.783V246.362ZM377.374 240.14V235.824H377.54V240.14H377.374ZM377.307 235.53V235.29H377.54V235.53H377.307ZM376.52 233.594V233.357H377.54V233.594H376.52ZM377.307 224.758V224.521H377.54V224.758H377.307ZM376.52 222.794V222.557H377.54V222.794H376.52ZM383.151 215.544V215.407H383.538V215.544H383.151ZM383.151 209.786V209.648H383.538V209.786H383.151ZM383.151 204.408V204.277H383.538V204.408H383.151ZM383.151 199.247V199.116H383.538V199.247H383.151ZM401.866 199.116V199.247H401.476V199.116H401.866ZM401.866 204.277V204.408H401.476V204.277H401.866ZM401.866 209.648V209.786H401.476V209.648H401.866ZM401.866 215.407V215.544H401.476V215.407H401.866ZM408.497 222.557V222.794H407.62V222.557H408.497ZM407.783 224.825H407.62V224.585H407.783V224.825ZM377.54 229.451H377.374V225.062H377.54V229.451ZM408.497 233.357V233.594H407.62V233.357H408.497ZM407.783 235.584H407.62V235.357H407.783V235.584ZM455.791 458.215H454.342V455.863H450.942V450.818H453.171V445.472H451.844V425.848L455.791 415.454H454.342V412.882H447.193V410.508H449.17V405.52H447.929V387.192L451.614 377.485H447.193V377.239H450.264V375.307H441.759V374.593H441.794V373.365H443.739V368.854H442.622V352.269L445.955 343.507H441.794V343.283H444.737V341.523H441.794V340.845H432.137V339.523H433.737V335.873H432.841V322.475L435.521 315.389H432.355V315.216H434.533V313.792H432.355V313.555H416.813V312.679H417.795V310.433H417.245V302.205L418.889 297.854H416.912V297.732H418.281V296.862H416.912V296.593H417.795V294.341H417.245V286.061L418.889 281.678H416.912V281.563H418.281V280.687H416.912V280.351H417.795V278.083H417.245V269.745L418.889 265.35H416.912V265.234H418.281V264.348H416.912V263.325H408.289V262.294H407.943V257.076L408.979 254.309H407.62V254.242H408.596V253.685H407.684V252.866H408.289V251.443H407.943V246.215L408.979 243.448H407.62V243.39H408.596V242.834H407.684V242.088H408.289V240.664H407.943V235.447L408.979 232.679H408.596V232.343H407.684V231.435H408.289V229.982H407.943V224.678L408.979 221.859H408.596V221.261H407.62V220.599H401.741V220.074H401.543V216.757L402.141 214.997H401.476V214.962H401.93V214.636H401.741V213.922H401.543V210.867L402.141 209.255H401.741V209.213H401.93V208.893H401.741V208.452H401.543V205.47L402.141 203.889H401.741V203.291H401.543V200.303L402.141 198.723H401.476V197.657H399.032V173.727H396.595V151.998H393.988V90.9922H391.032V151.998H388.425V173.727H385.991V197.657H383.538V198.723H382.869L383.48 200.303V203.291H383.279V203.889H382.869L383.48 205.47V208.452H383.279V208.893H383.093V209.213H383.279V209.255H382.869L383.48 210.867V213.922H383.279V214.636H383.093V214.962H383.538V214.997H382.869L383.48 216.757V220.074H383.279V220.599H377.54V221.261H376.424V221.859H376.04L377.067 224.678V229.982H376.725V231.435H377.339V232.343H376.424V232.679H376.04L377.067 235.447V240.664H376.725V242.088H377.339V242.834H376.424V243.39H377.54V243.448H376.04L377.067 246.215V251.443H376.725V252.866H377.339V253.685H376.424V254.242H377.54V254.309H376.04L377.067 257.076V262.294H376.725V263.325H368.399V264.348H366.732V265.234H368.399V265.35H366.128L367.775 269.745V278.083H367.222V280.351H368.197V280.687H366.732V281.563H368.197V281.678H366.128L367.775 286.061V294.341H367.222V296.593H368.197V296.862H366.732V297.732H368.197V297.854H366.128L367.775 302.205V310.433H367.222V312.679H368.197V313.555H352.956V313.792H350.484V315.216H352.956V315.389H349.498L352.182 322.475V335.873H351.28V339.523H352.879V340.845H342.769V341.523H340.283V343.283H342.769V343.507H339.065L342.388 352.269V368.854H341.278V373.365H342.769V374.593H343.264V375.307H334.756V377.239H337.824V377.485H333.4L337.088 387.192V405.52H335.853V410.508H337.824V412.882H330.671V415.454H329.226L333.17 425.848V445.472H331.845V450.818H333.924V455.863H330.671V458.215H329.226L333.17 468.59V488.223H331.845V493.563H333.924V498.608H330.671V500.94H329.226L333.17 511.334V530.965H331.845V536.307H333.924V540.761H330.671V543.103H329.226L333.17 553.471V573.079H331.845V578.412H333.924V581.605H330.671V585.79H329.226L333.17 596.168V615.766H331.845V621.106H333.924V625.217H330.671V628.477H329.226L333.17 638.852V657.983H331.845V663.793H333.924V668.829H330.671V671.164H329.226L333.17 681.539V701.138H331.845V706.477H333.924V710.818H330.671V713.848H329.226L333.17 724.226V743.825H331.845V749.155H333.924V754.209H330.671V756.535H329.226L333.17 766.91V786.051H331.845V791.851H333.924V799.229H329.226L333.17 809.607V829.196H331.845V834.555H333.924V841.916H329.226L333.17 852.285V871.662H331.845V877.223H333.924V882.268H330.671V884.594H329.226L333.17 894.972V914.11H331.845V920.262H333.924V924.945H330.671V927.287H329.226L333.17 937.665V957.273H331.845V962.597H333.924V965.863H330.671V968.199H329.226L333.17 978.574V997.83H331.845V1003.51H333.924V1006.55H330.671V1008.89H329.226L333.17 1019.26V1038.86H331.845V1044.19H333.924V1047.02H330.671V1049.34H329.226L333.17 1059.72V1078.97H331.845V1084.67H333.924V1095.5H450.942V1084.67H453.171V1078.97H451.844V1059.72L455.791 1049.34H454.342V1047.02H450.942V1044.19H453.171V1038.86H451.844V1019.26L455.791 1008.89H454.342V1006.55H450.942V1003.51H453.171V997.83H451.844V978.574L455.791 968.199H454.342V965.863H450.942V962.597H453.171V957.273H451.844V937.665L455.791 927.287H454.342V924.945H450.942V920.262H453.171V914.11H451.844V894.972L455.791 884.594H454.342V882.268H450.942V877.223H453.171V871.662H451.844V852.285L455.791 841.916H450.942V834.555H453.171V829.196H451.844V809.607L455.791 799.229H450.942V791.851H453.171V786.051H451.844V766.91L455.791 756.535H454.342V754.209H450.942V749.155H453.171V743.825H451.844V724.226L455.791 713.848H454.342V710.818H450.942V706.477H453.171V701.138H451.844V681.539L455.791 671.164H454.342V668.829H450.942V663.793H453.171V657.983H451.844V638.852L455.791 628.477H454.342V625.217H450.942V621.106H453.171V615.766H451.844V596.168L455.791 585.79H454.342V581.605H450.942V578.412H453.171V573.079H451.844V553.471L455.791 543.103H454.342V540.761H450.942V536.307H453.171V530.965H451.844V511.334L455.791 500.94H454.342V498.608H450.942V493.563H453.171V488.223H451.844V468.59L455.791 458.215Z" fill="white"/>
</mask>
<g mask="url(#mask15_30_2323)">
<path d="M329.226 1095.5H455.791V90.9922H329.226V1095.5Z" fill="#E55800"/>
</g>
</g>
</g>
<mask id="mask16_30_2323" style="mask-type:luminance" maskUnits="userSpaceOnUse" x="264" y="636" width="59" height="416">
<path d="M264.745 636.689H322.23V1051.77H264.745V636.689Z" fill="white"/>
</mask>
<g mask="url(#mask16_30_2323)">
<path d="M264.745 1051.77H322.23V636.689H264.745V1051.77Z" fill="#E55800"/>
</g>
<mask id="mask17_30_2323" style="mask-type:luminance" maskUnits="userSpaceOnUse" x="185" y="550" width="73" height="709">
<path d="M185.746 550.342H257.184V574.649H185.746V550.342ZM220.115 574.649H222.805V596.075H220.115V574.649ZM220.141 596.075H222.805V596.158H220.141V596.075ZM253.716 574.649H257.184V596.158H253.716V574.649ZM233.559 574.649H236.246V596.158H233.559V574.649ZM226.835 574.649H229.525V596.158H226.835V574.649ZM240.276 574.649H242.966V596.158H240.276V574.649ZM246.999 574.649H249.686V596.158H246.999V574.649ZM199.954 574.649H202.654V596.273H199.954V574.649ZM199.967 596.273H202.654V596.395H199.967V596.273ZM206.678 574.649H209.368V596.395H206.678V574.649ZM193.241 574.649H195.921V596.395H193.241V574.649ZM213.398 574.649H216.088V596.395H213.398V574.649ZM218.212 596.158H257.184V596.395H218.212V596.158ZM185.746 574.649H189.204V596.395H185.746V574.649ZM185.746 596.395H257.184V1238.17H185.746V596.395ZM187.531 1238.17H255.229V1258.98H187.531V1238.17Z" fill="white"/>
</mask>
<g mask="url(#mask17_30_2323)">
<path d="M185.746 1258.98H257.184V550.342H185.746V1258.98Z" fill="#E55800"/>
</g>
<mask id="mask18_30_2323" style="mask-type:luminance" maskUnits="userSpaceOnUse" x="27" y="396" width="153" height="778">
<path d="M101.933 396.969H114.456V420.499H101.933V396.969ZM45.5773 396.969H95.6705V420.499H45.5773V396.969ZM45.5773 420.499H114.456V426.773H45.5773V420.499ZM36.1926 426.773H170.806V473.817H36.1926V426.773ZM36.1926 473.817H162.464V476.962H36.1926V473.817ZM41.0033 476.962H162.464V484.266H41.0033V476.962ZM27.8411 484.266H162.464V488.566H27.8411V484.266ZM41.0033 488.566H162.464V496.88H41.0033V488.566ZM27.8411 496.88H162.464V501.187H27.8411V496.88ZM41.0033 501.187H162.464V509.485H41.0033V501.187ZM27.8411 509.485H162.464V513.801H27.8411V509.485ZM41.0033 513.801H162.464V522.097H41.0033V513.801ZM27.8411 522.097H162.464V526.412H27.8411V522.097ZM41.0033 526.412H162.464V534.708H41.0033V526.412ZM27.8411 534.708H162.464V539.024H27.8411V534.708ZM41.0033 539.024H162.464V543.874H41.0033V539.024ZM41.0033 543.874H171.33V547.329H41.0033V543.874ZM27.8411 547.329H171.33V551.629H27.8411V547.329ZM41.0033 551.629H171.33V557.451H41.0033V551.629ZM41.0033 557.451H179.685V559.943H41.0033V557.451ZM27.8411 559.943H179.685V561.77H27.8411V559.943ZM27.8411 561.77H171.33V564.25H27.8411V561.77ZM41.0033 564.25H171.33V570.066H41.0033V564.25ZM41.0033 570.066H179.685V572.555H41.0033V570.066ZM27.8411 572.555H179.685V574.381H27.8411V572.555ZM27.8411 574.381H171.33V576.864H27.8411V574.381ZM41.0033 576.864H171.33V582.677H41.0033V576.864ZM41.0033 582.677H179.685V585.169H41.0033V582.677ZM27.8411 585.169H179.685V586.986H27.8411V585.169ZM27.8411 586.986H171.33V589.485H27.8411V586.986ZM41.0033 589.485H171.33V595.292H41.0033V589.485ZM41.0033 595.292H179.685V597.781H41.0033V595.292ZM27.8411 597.781H179.685V599.607H27.8411V597.781ZM27.8411 599.607H171.33V602.096H27.8411V599.607ZM41.0033 602.096H171.33V607.903H41.0033V602.096ZM41.0033 607.903H179.685V610.392H41.0033V607.903ZM27.8411 610.392H179.685V612.219H27.8411V610.392ZM27.8411 612.219H171.33V614.701H27.8411V612.219ZM41.0033 614.701H171.33V620.524H41.0033V614.701ZM41.0033 620.524H179.685V623.013H41.0033V620.524ZM27.8411 623.013H179.685V624.833H27.8411V623.013ZM27.8411 624.833H171.33V627.313H27.8411V624.833ZM41.0033 627.313H171.33V633.135H41.0033V627.313ZM41.0033 633.135H179.685V635.618H41.0033V633.135ZM27.8411 635.618H179.685V637.444H27.8411V635.618ZM27.8411 637.444H171.33V639.927H27.8411V637.444ZM41.0033 639.927H171.33V645.75H41.0033V639.927ZM41.0033 645.75H179.685V647.912H41.0033V645.75ZM36.1926 647.912H179.685V650.056H36.1926V647.912ZM36.1926 650.056H171.33V658.361H36.1926V650.056ZM36.1926 658.361H179.685V662.67H36.1926V658.361ZM36.1926 662.67H171.33V670.975H36.1926V662.67ZM36.1926 670.975H179.685V675.282H36.1926V670.975ZM36.1926 675.282H171.33V683.587H36.1926V675.282ZM36.1926 683.587H179.685V687.896H36.1926V683.587ZM36.1926 687.896H171.33V696.198H36.1926V687.896ZM36.1926 696.198H179.685V700.507H36.1926V696.198ZM36.1926 700.507H171.33V708.813H36.1926V700.507ZM36.1926 708.813H179.685V713.128H36.1926V708.813ZM36.1926 713.128H171.33V745.652H36.1926V713.128ZM36.1926 745.652H179.685V749.974H36.1926V745.652ZM36.1926 749.974H171.33V758.273H36.1926V749.974ZM36.1926 758.273H179.685V762.588H36.1926V758.273ZM36.1926 762.588H171.33V770.884H36.1926V762.588ZM36.1926 770.884H179.685V775.193H36.1926V770.884ZM36.1926 775.193H171.33V783.495H36.1926V775.193ZM36.1926 783.495H179.685V787.805H36.1926V783.495ZM36.1926 787.805H171.33V796.11H36.1926V787.805ZM36.1926 796.11H179.685V800.416H36.1926V796.11ZM36.1926 800.416H171.33V808.721H36.1926V800.416ZM36.1926 808.721H179.685V813.03H36.1926V808.721ZM36.1926 813.03H171.33V821.336H36.1926V813.03ZM36.1926 821.336H179.685V825.651H36.1926V821.336ZM36.1926 825.651H171.33V833.956H36.1926V825.651ZM36.1926 833.956H179.685V838.263H36.1926V833.956ZM36.1926 838.263H171.33V846.568H36.1926V838.263ZM36.1926 846.568H179.685V850.877H36.1926V846.568ZM36.1926 850.877H171.33V859.173H36.1926V850.877ZM36.1926 859.173H179.685V863.488H36.1926V859.173ZM36.1926 863.488H171.33V871.794H36.1926V863.488ZM36.1926 871.794H179.685V876.1H36.1926V871.794ZM36.1926 876.1H171.33V884.405H36.1926V876.1ZM36.1926 884.405H179.685V888.721H36.1926V884.405ZM36.1926 888.721H171.33V897.019H36.1926V888.721ZM36.1926 897.019H179.685V901.335H36.1926V897.019ZM36.1926 901.335H171.33V923.947H36.1926V901.335ZM27.3165 923.947H171.33V931.923H27.3165V923.947ZM36.1926 931.923H171.33V933.858H36.1926V931.923ZM36.1926 933.858H179.685V934.757H36.1926V933.858ZM27.3165 934.757H179.685V938.174H27.3165V934.757ZM27.3165 938.174H171.33V942.736H27.3165V938.174ZM36.1926 942.736H171.33V945.561H36.1926V942.736ZM27.3165 945.561H171.33V946.47H27.3165V945.561ZM27.3165 946.47H179.685V950.786H27.3165V946.47ZM27.3165 950.786H171.33V953.537H27.3165V950.786ZM36.1926 953.537H171.33V956.362H36.1926V953.537ZM27.3165 956.362H171.33V959.091H27.3165V956.362ZM27.3165 959.091H179.685V963.397H27.3165V959.091ZM27.3165 963.397H171.33V964.341H27.3165V963.397ZM36.1926 964.341H171.33V967.175H36.1926V964.341ZM27.3165 967.175H171.33V971.712H27.3165V967.175ZM27.3165 971.712H179.685V975.151H27.3165V971.712ZM36.1926 975.151H179.685V976.011H36.1926V975.151ZM36.1926 976.011H171.33V977.976H36.1926V976.011ZM27.3165 977.976H171.33V984.317H27.3165V977.976ZM27.3165 984.317H179.685V985.955H27.3165V984.317ZM36.1926 985.955H179.685V988.632H36.1926V985.955ZM36.1926 988.632H171.33V988.779H36.1926V988.632ZM27.3165 988.779H171.33V996.765H27.3165V988.779ZM36.1926 996.765H171.33V996.928H36.1926V996.765ZM36.1926 996.928H179.685V1001.24H36.1926V996.928ZM36.1926 1001.24H171.33V1009.54H36.1926V1001.24ZM36.1926 1009.54H179.685V1010.4H36.1926V1009.54ZM27.3165 1010.4H179.685V1013.86H27.3165V1010.4ZM27.3165 1013.86H171.33V1018.38H27.3165V1013.86ZM36.1926 1018.38H171.33V1022.16H36.1926V1018.38ZM36.1926 1022.16H179.685V1026.47H36.1926V1022.16ZM36.1926 1026.47H171.33V1032.01H36.1926V1026.47ZM27.3165 1032.01H171.33V1034.77H27.3165V1032.01ZM27.3165 1034.77H179.685V1039.07H27.3165V1034.77ZM27.3165 1039.07H171.33V1039.98H27.3165V1039.07ZM36.1926 1039.98H171.33V1042.82H36.1926V1039.98ZM27.3165 1042.82H171.33V1047.39H27.3165V1042.82ZM27.3165 1047.39H179.685V1050.79H27.3165V1047.39ZM36.1926 1050.79H179.685V1051.7H36.1926V1050.79ZM36.1926 1051.7H171.33V1053.62H36.1926V1051.7ZM27.3165 1053.62H171.33V1060H27.3165V1053.62ZM27.3165 1060H179.685V1061.6H27.3165V1060ZM36.1926 1061.6H179.685V1064.31H36.1926V1061.6ZM36.1926 1064.31H171.33V1064.43H36.1926V1064.31ZM27.3165 1064.43H171.33V1072.41H27.3165V1064.43ZM36.1926 1072.41H171.33V1072.61H36.1926V1072.41ZM36.1926 1072.61H179.685V1075.23H36.1926V1072.61ZM27.3165 1075.23H179.685V1076.92H27.3165V1075.23ZM27.3165 1076.92H171.33V1083.21H27.3165V1076.92ZM36.1926 1083.21H171.33V1085.22H36.1926V1083.21ZM36.1926 1085.22H179.685V1086.04H36.1926V1085.22ZM27.3165 1086.04H179.685V1089.53H27.3165V1086.04ZM27.3165 1089.53H171.33V1094.01H27.3165V1089.53ZM36.1926 1094.01H171.33V1099.09H36.1926V1094.01ZM36.1926 1099.09H171.074V1107.66H36.1926V1099.09ZM27.3165 1107.66H171.074V1115.63H27.3165V1107.66ZM36.1926 1115.63H171.074V1118.46H36.1926V1115.63ZM27.3165 1118.46H171.074V1126.44H27.3165V1118.46ZM36.1926 1126.44H171.074V1129.26H36.1926V1126.44ZM27.3165 1129.26H171.074V1136.71H27.3165V1129.26ZM27.3165 1136.71H36.7108V1137.25H27.3165V1136.71ZM50.1289 1136.71H171.074V1137.25H50.1289V1136.71ZM36.1926 1137.25H171.074V1146.89H36.1926V1137.25ZM36.1926 1146.89H170.806V1173.32H36.1926V1146.89Z" fill="white"/>
</mask>
<g mask="url(#mask18_30_2323)">
<path d="M27.3165 1173.32H179.685V396.969H27.3165V1173.32Z" fill="#E55800"/>
</g>
<mask id="mask19_30_2323" style="mask-type:luminance" maskUnits="userSpaceOnUse" x="-100" y="515" width="138" height="437">
<path d="M-43.9707 515.682H-28.3167V520.391H-43.9707V515.682ZM-46.0561 520.391H8.7358V547.05H-46.0561V520.391ZM-92.503 542.875H-80.4922V547.05H-92.503V542.875ZM-99.2776 547.05H19.6846V554.626H-99.2776V547.05ZM19.6334 554.626H30.3871V557.771H19.6334V554.626ZM-99.2776 554.626H19.256V557.771H-99.2776V554.626ZM-99.2776 557.771H19.6846V564.284H-99.2776V557.771ZM-99.2776 564.284H19.256V567.419H-99.2776V564.284ZM19.6334 564.284H30.3871V567.419H19.6334V564.284ZM-99.2776 567.419H19.6846V568.485H-99.2776V567.419ZM-95.1002 568.485H19.6846V573.939H-95.1002V568.485ZM-95.1002 573.939H19.256V576.329H-95.1002V573.939ZM-99.2776 576.329H19.256V577.068H-99.2776V576.329ZM19.6334 573.939H30.3871V577.068H19.6334V573.939ZM-99.2776 577.068H19.6846V583.579H-99.2776V577.068ZM-99.2776 583.579H19.256V586.723H-99.2776V583.579ZM19.6334 583.579H30.3871V586.723H19.6334V583.579ZM-99.2776 586.723H19.6846V593.234H-99.2776V586.723ZM19.6334 593.234H30.3871V596.372H19.6334V593.234ZM-99.2776 593.234H19.256V596.372H-99.2776V593.234ZM-99.2776 596.372H19.6846V599.853H-99.2776V596.372ZM-95.1002 599.853H19.6846V602.889H-95.1002V599.853ZM-95.1002 602.889H19.256V606.018H-95.1002V602.889ZM19.6334 602.889H30.3871V606.018H19.6334V602.889ZM-95.1002 606.018H19.6846V607.698H-95.1002V606.018ZM-99.2776 607.698H19.6846V612.538H-99.2776V607.698ZM19.6334 612.538H30.3871V613.447H19.6334V612.538ZM19.6334 613.447H37.9582V615.676H19.6334V613.447ZM-99.2776 612.538H19.256V615.676H-99.2776V612.538ZM-99.2776 615.676H37.9582V616.06H-99.2776V615.676ZM-99.2776 616.06H19.6846V622.34H-99.2776V616.06ZM-99.2776 622.34H36.9122V631.228H-99.2776V622.34ZM-95.1002 631.228H36.9122V639.066H-95.1002V631.228ZM-99.2776 639.066H36.9122V645.864H-99.2776V639.066ZM-99.2776 645.864H19.6846V651.146H-99.2776V645.864ZM19.6334 651.146H30.3871V654.281H19.6334V651.146ZM-99.2776 651.146H19.256V654.281H-99.2776V651.146ZM-99.2776 654.281H19.6846V660.795H-99.2776V654.281ZM-99.2776 660.795H19.256V662.587H-99.2776V660.795ZM-95.1002 662.587H19.256V663.93H-95.1002V662.587ZM19.6334 660.795H30.3871V663.93H19.6334V660.795ZM-95.1002 663.93H19.6846V670.425H-95.1002V663.93ZM-99.2776 670.425H19.6846V670.45H-99.2776V670.425ZM-99.2776 670.45H19.256V673.579H-99.2776V670.45ZM19.6334 670.45H30.3871V673.579H19.6334V670.45ZM-99.2776 673.579H19.6846V680.096H-99.2776V673.579ZM19.6334 680.096H30.3871V683.234H19.6334V680.096ZM-99.2776 680.096H19.256V683.234H-99.2776V680.096ZM-99.2776 683.234H19.6846V689.754H-99.2776V683.234ZM-99.2776 689.754H19.256V692.883H-99.2776V689.754ZM19.6334 689.754H30.3871V692.883H19.6334V689.754ZM-99.2776 692.883H19.6846V699.41H-99.2776V692.883ZM-99.2776 699.41H19.256V702.545H-99.2776V699.41ZM19.6334 699.41H30.3871V702.545H19.6334V699.41ZM-99.2776 702.545H19.6846V709.049H-99.2776V702.545ZM-99.2776 709.049H19.256V712.187H-99.2776V709.049ZM19.6334 709.049H30.3871V712.187H19.6334V709.049ZM-99.2776 712.187H19.6846V718.704H-99.2776V712.187ZM-99.2776 718.704H19.256V721.849H-99.2776V718.704ZM19.6334 718.704H30.3871V721.849H19.6334V718.704ZM-99.2776 721.849H19.6846V728.353H-99.2776V721.849ZM19.6334 728.353H30.3871V731.488H19.6334V728.353ZM-99.2776 728.353H19.256V731.488H-99.2776V728.353ZM-99.2776 731.488H19.6846V747.657H-99.2776V731.488ZM-99.2776 747.657H19.256V750.792H-99.2776V747.657ZM19.6334 747.657H30.3871V750.792H19.6334V747.657ZM-99.2776 750.792H19.6846V757.312H-99.2776V750.792ZM-99.2776 757.312H19.256V760.451H-99.2776V757.312ZM19.6334 757.312H30.3871V760.451H19.6334V757.312ZM-99.2776 760.451H19.6846V766.961H-99.2776V760.451ZM-99.2776 766.961H19.256V770.096H-99.2776V766.961ZM19.6334 766.961H30.3871V770.096H19.6334V766.961ZM-99.2776 770.096H19.6846V776.616H-99.2776V770.096ZM-99.2776 776.616H19.256V779.745H-99.2776V776.616ZM19.6334 776.616H30.3871V779.745H19.6334V776.616ZM-99.2776 779.745H19.6846V786.265H-99.2776V779.745ZM-99.2776 786.265H19.256V789.394H-99.2776V786.265ZM19.6334 786.265H30.3871V789.394H19.6334V786.265ZM-99.2776 789.394H19.6846V795.92H-99.2776V789.394ZM19.6334 795.92H30.3871V799.049H19.6334V795.92ZM-99.2776 795.92H19.256V799.049H-99.2776V795.92ZM-99.2776 799.049H19.6846V805.569H-99.2776V799.049ZM-99.2776 805.569H19.256V808.704H-99.2776V805.569ZM19.6334 805.569H30.3871V808.704H19.6334V805.569ZM-99.2776 808.704H19.6846V815.224H-99.2776V808.704ZM19.6334 815.224H30.3871V818.36H19.6334V815.224ZM-99.2776 815.224H19.256V818.36H-99.2776V815.224ZM-99.2776 818.36H19.6846V844.177H-99.2776V818.36ZM-99.2776 844.177H19.256V847.313H-99.2776V844.177ZM19.6334 844.177H30.3871V847.313H19.6334V844.177ZM-99.2776 847.313H19.6846V853.833H-99.2776V847.313ZM19.6334 853.833H30.3871V856.968H19.6334V853.833ZM-99.2776 853.833H19.256V856.968H-99.2776V853.833ZM-99.2776 856.968H19.6846V863.478H-99.2776V856.968ZM-99.2776 863.478H19.256V866.617H-99.2776V863.478ZM19.6334 863.478H30.3871V866.617H19.6334V863.478ZM-99.2776 866.617H19.6846V873.137H-99.2776V866.617ZM-99.2776 873.137H19.256V876.272H-99.2776V873.137ZM19.6334 873.137H30.3871V876.272H19.6334V873.137ZM-99.2776 876.272H19.6846V882.782H-99.2776V876.272ZM-99.2776 882.782H19.256V885.921H-99.2776V882.782ZM19.6334 882.782H30.3871V885.921H19.6334V882.782ZM-99.2776 885.921H19.6846V892.431H-99.2776V885.921ZM-99.2776 892.431H19.256V895.57H-99.2776V892.431ZM19.6334 892.431H30.3871V895.57H19.6334V892.431ZM-99.2776 895.57H19.6846V911.745H-99.2776V895.57ZM19.6334 911.745H30.3871V914.871H19.6334V911.745ZM-99.2776 911.745H19.256V914.871H-99.2776V911.745ZM-99.2776 914.871H19.6846V921.384H-99.2776V914.871ZM19.6334 921.384H30.3871V924.529H19.6334V921.384ZM-99.2776 921.384H19.256V924.529H-99.2776V921.384ZM-99.2776 924.529H19.6846V951.703H-99.2776V924.529Z" fill="white"/>
</mask>
<g mask="url(#mask19_30_2323)">
<path d="M-99.2776 951.703H37.9582V515.682H-99.2776V951.703Z" fill="#E55800"/>
</g>
<mask id="mask20_30_2323" style="mask-type:luminance" maskUnits="userSpaceOnUse" x="1092" y="821" width="24" height="20">
<path d="M1092.06 821.824H1115.61V840.572H1092.06V821.824Z" fill="white"/>
</mask>
<g mask="url(#mask20_30_2323)">
<path d="M1092.06 840.572H1115.61V821.824H1092.06V840.572Z" fill="#E55800"/>
</g>
<mask id="mask21_30_2323" style="mask-type:luminance" maskUnits="userSpaceOnUse" x="-370" y="676" width="2619" height="794">
<path d="M-369.102 676.756H2248.73V1469.55H-369.102V676.756Z" fill="white"/>
</mask>
<g mask="url(#mask21_30_2323)">
<mask id="mask22_30_2323" style="mask-type:luminance" maskUnits="userSpaceOnUse" x="-369" y="677" width="2618" height="793">
<path d="M2182.55 1038.36V999.769H2154.19V952.088H2046.42V1038.36H2038.86V899.87H2025.62V847.65H1993.47V899.87H1984.02V834.037H1936.74V868.083H1927.29V899.87H1868.67V911.228H1836.54V879.885H1819.52V859H1796.82V879.885H1779.84V909.41H1766.75V967.902H1779.84V1031.55H1749.56V1086.23H1694.71V1041.57H1708.97V997.443H1694.71V965.707H1630.42V1052.9H1578.19V1019.49H1551.01V995.226H1507.52V963.432H1464.04V1074.88H1437.56V1012.76H1405.42V1074.88H1367.61V973.75H1309.23V1029.94H1270.23V1074.88H1245.98V1013.06H1114.83V1074.88H1072.95V1024.93H1033.69V888.705H1010.23V859.567H980.789V888.705H962.963V879.443H927.034V888.705H914.121V908.953H903.629V938.469H914.121V986.144H894.894V1024.93H864.955V963.628H855.171V929.386H838.164V963.628H808.228V938.658H803.421V921.833H791.653V902.139H764.42V921.833H744.57V938.658H416.822V747.946H346.741V698.822H282.254V677.976H265.5V698.822H246.769V732.628H194.974V747.946H163.449V809.24H102.618V727.56H100.731V677.371H85.5981V727.56H42.1164V827.411H-52.4309V763.644H-80.7929V827.411H-167.446V925.896H-174.547V826.272H-209.37V795.429H-239.619V774.995H-271.765V826.272H-297.447V925.896H-337.733V942.071H-368.826V1467.11L2248.38 1469.5L2248.17 1038.75L2182.55 1038.36Z" fill="white"/>
</mask>
<g mask="url(#mask22_30_2323)">
<mask id="mask23_30_2323" style="mask-type:luminance" maskUnits="userSpaceOnUse" x="-369" y="677" width="2618" height="793">
<path d="M2182.55 1038.36V999.769H2154.19V952.088H2046.42V1038.36H2038.86V899.87H2025.62V847.65H1993.47V899.87H1984.02V834.037H1936.74V868.083H1927.29V899.87H1868.67V911.228H1836.54V879.885H1819.52V859H1796.82V879.885H1779.84V909.41H1766.75V967.902H1779.84V1031.55H1749.56V1086.23H1694.71V1041.57H1708.97V997.443H1694.71V965.707H1630.42V1052.9H1578.19V1019.49H1551.01V995.226H1507.52V963.432H1464.04V1074.88H1437.56V1012.76H1405.42V1074.88H1367.61V973.75H1309.23V1029.94H1270.23V1074.88H1245.98V1013.06H1114.83V1074.88H1072.95V1024.93H1033.69V888.705H1010.23V859.567H980.789V888.705H962.963V879.443H927.034V888.705H914.121V908.953H903.629V938.469H914.121V986.144H894.894V1024.93H864.955V963.628H855.171V929.386H838.164V963.628H808.228V938.658H803.421V921.833H791.653V902.139H764.42V921.833H744.57V938.658H416.822V747.946H346.741V698.822H282.254V677.976H265.5V698.822H246.769V732.628H194.974V747.946H163.449V809.24H102.618V727.56H100.731V677.371H85.5981V727.56H42.1164V827.411H-52.4309V763.644H-80.7929V827.411H-167.446V925.896H-174.547V826.272H-209.37V795.429H-239.619V774.995H-271.765V826.272H-297.447V925.896H-337.733V942.071H-368.826V1467.11L2248.38 1469.5L2248.17 1038.75L2182.55 1038.36Z" fill="white"/>
</mask>
<g mask="url(#mask23_30_2323)">
<path d="M-368.826 1469.5H2248.38V677.371H-368.826V1469.5Z" fill="#8E8E8E"/>
</g>
</g>
</g>
<mask id="mask24_30_2323" style="mask-type:luminance" maskUnits="userSpaceOnUse" x="1018" y="1169" width="170" height="300">
<path d="M1070.31 1175.08H1089.47V1180.06H1070.31V1175.08ZM1034.71 1180.06H1093.86V1195.04H1034.71V1180.06ZM1153 1169.59H1167.8V1195.04H1153V1169.59ZM1026.5 1195.04H1180.94V1229.45H1026.5V1195.04ZM1026.5 1229.45H1187.51V1235.44H1026.5V1229.45ZM1026.5 1235.44H1180.94V1259.39H1026.5V1235.44ZM1026.5 1259.39H1187.51V1265.38H1026.5V1259.39ZM1026.5 1265.38H1180.94V1308.77H1026.5V1265.38ZM1018.28 1308.77H1180.94V1313.27H1018.28V1308.77ZM1018.28 1313.27H1174.91V1314.76H1018.28V1313.27ZM1018.28 1314.76H1024.31V1319.57H1018.28V1314.76ZM1035.14 1314.76H1174.91V1319.57H1035.14V1314.76ZM1018.28 1319.57H1174.91V1330.23H1018.28V1319.57ZM1018.28 1330.23H1180.94V1337.78H1018.28V1330.23ZM1018.28 1337.78H1024.31V1342.58H1018.28V1337.78ZM1035.14 1337.78H1180.94V1342.58H1035.14V1337.78ZM1018.28 1342.58H1180.94V1343.2H1018.28V1342.58ZM1018.28 1343.2H1174.91V1349.3H1018.28V1343.2ZM1018.28 1349.3H1024.31V1354.1H1018.28V1349.3ZM1035.14 1349.3H1174.91V1354.1H1035.14V1349.3ZM1018.28 1354.1H1174.91V1360.16H1018.28V1354.1ZM1018.28 1360.16H1180.94V1360.81H1018.28V1360.16ZM1035.14 1360.81H1180.94V1365.6H1035.14V1360.81ZM1018.28 1360.81H1024.31V1365.6H1018.28V1360.81ZM1018.28 1365.6H1180.94V1372.32H1018.28V1365.6ZM1035.14 1372.32H1180.94V1373.13H1035.14V1372.32ZM1035.14 1373.13H1174.91V1377.12H1035.14V1373.13ZM1018.28 1372.32H1024.31V1377.12H1018.28V1372.32ZM1018.28 1377.12H1174.91V1383.6H1018.28V1377.12ZM1026.5 1383.6H1174.91V1390.09H1026.5V1383.6ZM1026.5 1390.09H1180.94V1428.5H1026.5V1390.09ZM1018.28 1428.5H1180.94V1434.49H1018.28V1428.5ZM1035.14 1434.49H1180.94V1439.28H1035.14V1434.49ZM1018.28 1434.49H1024.31V1439.28H1018.28V1434.49ZM1018.28 1439.28H1180.94V1446H1018.28V1439.28ZM1018.28 1446H1024.31V1450.79H1018.28V1446ZM1035.14 1446H1180.94V1450.79H1035.14V1446ZM1018.28 1450.79H1180.94V1457.51H1018.28V1450.79ZM1035.14 1457.51H1180.94V1462.32H1035.14V1457.51ZM1018.28 1457.51H1024.31V1462.32H1018.28V1457.51ZM1018.28 1462.32H1180.94V1468.03H1018.28V1462.32Z" fill="white"/>
</mask>
<g mask="url(#mask24_30_2323)">
<path d="M1018.28 1468.03H1187.51V1169.59H1018.28V1468.03Z" fill="#E55800"/>
</g>
<mask id="mask25_30_2323" style="mask-type:luminance" maskUnits="userSpaceOnUse" x="465" y="1073" width="196" height="396">
<path d="M465.297 1073.97H661V1468.73H465.297V1073.97Z" fill="white"/>
</mask>
<g mask="url(#mask25_30_2323)">
<mask id="mask26_30_2323" style="mask-type:luminance" maskUnits="userSpaceOnUse" x="465" y="1074" width="196" height="395">
<path d="M474.64 1423.77V1421.08H493.048V1423.77H474.64ZM475.155 1398.03H493.048V1400.73H475.155V1398.03ZM474.64 1216.4V1213.72H493.048V1216.4H474.64ZM474.64 1170.32V1167.64H493.048V1170.32H474.64ZM475.155 1144.6H493.048V1147.29H475.155V1144.6ZM481.181 1136.07H488.119V1141.6H481.181V1136.07ZM492.476 1111.19H501.867V1118.68H492.476V1111.19ZM537.87 1098.22H547.271V1105.72H537.87V1098.22ZM537.87 1086.71H547.271V1094.19H537.87V1086.71ZM574.66 1089.59H584.055V1097.08H574.66V1089.59ZM574.66 1078.07H584.055V1085.56H574.66V1078.07ZM465.771 1467.15V1468.02H474.64V1467.15H493.048V1468.02H655.179V1467.15H646.571V1447.58H655.179V1444.13H646.661V1446.8H646.171V1444.13H646.571V1424.53H655.179V1421.08H646.571V1423.77H646.171V1421.08H646.571V1401.49H655.179V1398.03H646.571V1379.6H649.274V1374.23H660.239V1365.01H649.274V1360.41H660.239V1351.19H649.274V1346.58H660.239V1337.37H649.274V1332.76H660.239V1323.54H649.274V1318.92H660.239V1309.71H649.274V1305.11H660.239V1295.89H649.274V1291.28H660.239V1282.07H649.274V1277.46H660.239V1268.25H649.274V1263.63H660.239V1254.42H649.274V1249.82H660.239V1240.6H649.274V1235.99H660.239V1226.77H649.274V1224.09H646.571V1217.18H655.179V1213.72H646.571V1194.14H655.179V1190.68H646.661V1193.37H646.171V1190.68H646.571V1171.09H655.179V1167.64H646.571V1170.32H646.171V1167.64H646.571V1148.06H655.179V1144.6H646.571V1131.92H646.171V1128.74H620.893L602.322 1105.08H589.435V1074.32H531.508V1077.78H548.048V1081.24H531.508V1104.28H485.432V1131.92H474.378V1144.6H465.771V1148.06H474.378V1167.64H465.771V1171.09H474.378V1190.68H493.048V1193.37H474.109V1190.68H465.771V1194.14H474.378V1213.72H465.771V1217.18H474.378V1224.65H483.081V1390.55H474.378V1398.03H465.771V1401.49H474.378V1421.08H465.771V1424.53H474.378V1444.13H493.048V1446.8H474.109V1444.13H465.771V1447.58H474.378V1467.15H465.771Z" fill="white"/>
</mask>
<g mask="url(#mask26_30_2323)">
<mask id="mask27_30_2323" style="mask-type:luminance" maskUnits="userSpaceOnUse" x="465" y="1074" width="196" height="395">
<path d="M474.64 1423.77V1421.08H493.048V1423.77H474.64ZM475.155 1398.03H493.048V1400.73H475.155V1398.03ZM474.64 1216.4V1213.72H493.048V1216.4H474.64ZM474.64 1170.32V1167.64H493.048V1170.32H474.64ZM475.155 1144.6H493.048V1147.29H475.155V1144.6ZM481.181 1136.07H488.119V1141.6H481.181V1136.07ZM492.476 1111.19H501.867V1118.68H492.476V1111.19ZM537.87 1098.22H547.271V1105.72H537.87V1098.22ZM537.87 1086.71H547.271V1094.19H537.87V1086.71ZM574.66 1089.59H584.055V1097.08H574.66V1089.59ZM574.66 1078.07H584.055V1085.56H574.66V1078.07ZM465.771 1467.15V1468.02H474.64V1467.15H493.048V1468.02H655.179V1467.15H646.571V1447.58H655.179V1444.13H646.661V1446.8H646.171V1444.13H646.571V1424.53H655.179V1421.08H646.571V1423.77H646.171V1421.08H646.571V1401.49H655.179V1398.03H646.571V1379.6H649.274V1374.23H660.239V1365.01H649.274V1360.41H660.239V1351.19H649.274V1346.58H660.239V1337.37H649.274V1332.76H660.239V1323.54H649.274V1318.92H660.239V1309.71H649.274V1305.11H660.239V1295.89H649.274V1291.28H660.239V1282.07H649.274V1277.46H660.239V1268.25H649.274V1263.63H660.239V1254.42H649.274V1249.82H660.239V1240.6H649.274V1235.99H660.239V1226.77H649.274V1224.09H646.571V1217.18H655.179V1213.72H646.571V1194.14H655.179V1190.68H646.661V1193.37H646.171V1190.68H646.571V1171.09H655.179V1167.64H646.571V1170.32H646.171V1167.64H646.571V1148.06H655.179V1144.6H646.571V1131.92H646.171V1128.74H620.893L602.322 1105.08H589.435V1074.32H531.508V1077.78H548.048V1081.24H531.508V1104.28H485.432V1131.92H474.378V1144.6H465.771V1148.06H474.378V1167.64H465.771V1171.09H474.378V1190.68H493.048V1193.37H474.109V1190.68H465.771V1194.14H474.378V1213.72H465.771V1217.18H474.378V1224.65H483.081V1390.55H474.378V1398.03H465.771V1401.49H474.378V1421.08H465.771V1424.53H474.378V1444.13H493.048V1446.8H474.109V1444.13H465.771V1447.58H474.378V1467.15H465.771Z" fill="white"/>
</mask>
<g mask="url(#mask27_30_2323)">
<path d="M465.771 1468.02H660.239V1074.32H465.771V1468.02Z" fill="#E55800"/>
</g>
</g>
</g>
<mask id="mask28_30_2323" style="mask-type:luminance" maskUnits="userSpaceOnUse" x="593" y="1240" width="180" height="229">
<path d="M613.066 1240.06H658.47V1247.38H613.066V1240.06ZM651.164 1247.38H658.47V1257.85H651.164V1247.38ZM613.066 1247.38H641.773V1257.85H613.066V1247.38ZM613.066 1257.85H658.47V1266.21H613.066V1257.85ZM651.164 1266.21H658.47V1276.66H651.164V1266.21ZM613.066 1266.21H641.773V1276.66H613.066V1266.21ZM613.066 1276.66H658.47V1277.71H613.066V1276.66ZM600.547 1277.71H772.74V1287.12H600.547V1277.71ZM600.547 1287.12H608.898V1297.57H600.547V1287.12ZM618.289 1287.12H772.74V1297.57H618.289V1287.12ZM600.547 1297.57H772.74V1305.94H600.547V1297.57ZM608.373 1305.94H764.91V1334.18H608.373V1305.94ZM600.547 1334.18H772.74V1340.44H600.547V1334.18ZM600.547 1340.44H608.373V1350.9H600.547V1340.44ZM617.765 1340.44H772.74V1350.9H617.765V1340.44ZM600.547 1350.9H772.74V1356.13H600.547V1350.9ZM608.373 1356.13H764.91V1384.37H608.373V1356.13ZM600.547 1384.37H772.74V1394.05H600.547V1384.37ZM601.756 1394.05H772.74V1398.39H601.756V1394.05ZM600.547 1398.39H772.74V1404.64H600.547V1398.39ZM601.756 1404.64H772.74V1408.94H601.756V1404.64ZM600.547 1408.94H772.74V1415.22H600.547V1408.94ZM601.756 1415.22H772.74V1419.51H601.756V1415.22ZM600.547 1419.51H772.74V1425.8H600.547V1419.51ZM601.756 1425.8H772.74V1430.05H601.756V1425.8ZM600.547 1430.05H772.74V1436.4H600.547V1430.05ZM601.756 1436.4H772.74V1440.6H601.756V1436.4ZM600.547 1440.6H772.74V1446.98H600.547V1440.6ZM593.388 1446.98H772.74V1451.15H593.388V1446.98ZM600.547 1451.15H772.74V1457.57H600.547V1451.15ZM593.388 1457.57H772.74V1461.7H593.388V1457.57ZM600.547 1461.7H772.74V1468.02H600.547V1461.7Z" fill="white"/>
</mask>
<g mask="url(#mask28_30_2323)">
<path d="M593.388 1468.02H772.74V1240.06H593.388V1468.02Z" fill="#E55800"/>
</g>
<mask id="mask29_30_2323" style="mask-type:luminance" maskUnits="userSpaceOnUse" x="292" y="915" width="154" height="554">
<path d="M367.506 915.363H380.023V938.884H367.506V915.363ZM311.147 915.363H361.244V938.884H311.147V915.363ZM311.147 938.884H380.023V945.158H311.147V938.884ZM301.762 945.158H436.375V992.212H301.762V945.158ZM301.762 992.212H428.03V995.347H301.762V992.212ZM306.57 995.347H428.03V1002.65H306.57V995.347ZM293.411 1002.65H428.03V1006.96H293.411V1002.65ZM306.57 1006.96H428.03V1015.27H306.57V1006.96ZM293.411 1015.27H428.03V1019.57H293.411V1015.27ZM306.57 1019.57H428.03V1027.89H306.57V1019.57ZM293.411 1027.89H428.03V1032.19H293.411V1027.89ZM306.57 1032.19H428.03V1040.48H306.57V1032.19ZM293.411 1040.48H428.03V1044.8H293.411V1040.48ZM306.57 1044.8H428.03V1053.11H306.57V1044.8ZM293.411 1053.11H428.03V1057.41H293.411V1053.11ZM306.57 1057.41H428.03V1062.27H306.57V1057.41ZM306.57 1062.27H436.9V1065.72H306.57V1062.27ZM293.411 1065.72H436.9V1070.03H293.411V1065.72ZM306.57 1070.03H436.9V1075.84H306.57V1070.03ZM306.57 1075.84H445.255V1078.33H306.57V1075.84ZM293.411 1078.33H445.255V1080.16H293.411V1078.33ZM293.411 1080.16H436.9V1082.63H293.411V1080.16ZM306.57 1082.63H436.9V1088.46H306.57V1082.63ZM306.57 1088.46H445.255V1090.94H306.57V1088.46ZM293.411 1090.94H445.255V1092.78H293.411V1090.94ZM293.411 1092.78H436.9V1095.26H293.411V1092.78ZM306.57 1095.26H436.9V1101.06H306.57V1095.26ZM306.57 1101.06H445.255V1103.56H306.57V1101.06ZM293.411 1103.56H445.255V1105.38H293.411V1103.56ZM293.411 1105.38H436.9V1107.88H293.411V1105.38ZM306.57 1107.88H436.9V1113.68H306.57V1107.88ZM306.57 1113.68H445.255V1116.18H306.57V1113.68ZM293.411 1116.18H445.255V1117.99H293.411V1116.18ZM293.411 1117.99H436.9V1120.49H293.411V1117.99ZM306.57 1120.49H436.9V1126.29H306.57V1120.49ZM306.57 1126.29H445.255V1128.79H306.57V1126.29ZM293.411 1128.79H445.255V1130.61H293.411V1128.79ZM293.411 1130.61H436.9V1133.1H293.411V1130.61ZM306.57 1133.1H436.9V1138.91H306.57V1133.1ZM306.57 1138.91H445.255V1141.4H306.57V1138.91ZM293.411 1141.4H445.255V1143.22H293.411V1141.4ZM293.411 1143.22H436.9V1145.71H293.411V1143.22ZM306.57 1145.71H436.9V1151.52H306.57V1145.71ZM306.57 1151.52H445.255V1154.01H306.57V1151.52ZM293.411 1154.01H445.255V1155.84H293.411V1154.01ZM293.411 1155.84H436.9V1158.32H293.411V1155.84ZM306.57 1158.32H436.9V1164.14H306.57V1158.32ZM306.57 1164.14H445.255V1166.3H306.57V1164.14ZM301.762 1166.3H445.255V1168.45H301.762V1166.3ZM301.762 1168.45H436.9V1176.75H301.762V1168.45ZM301.762 1176.75H445.255V1181.06H301.762V1176.75ZM301.762 1181.06H436.9V1189.36H301.762V1181.06ZM301.762 1189.36H445.255V1193.67H301.762V1189.36ZM301.762 1193.67H436.9V1201.97H301.762V1193.67ZM301.762 1201.97H445.255V1206.29H301.762V1201.97ZM301.762 1206.29H436.9V1214.59H301.762V1206.29ZM301.762 1214.59H445.255V1218.9H301.762V1214.59ZM301.762 1218.9H436.9V1227.2H301.762V1218.9ZM301.762 1227.2H445.255V1231.51H301.762V1227.2ZM301.762 1231.51H436.9V1264.04H301.762V1231.51ZM301.762 1264.04H445.255V1268.36H301.762V1264.04ZM301.762 1268.36H436.9V1276.66H301.762V1268.36ZM301.762 1276.66H445.255V1280.97H301.762V1276.66ZM301.762 1280.97H436.9V1289.27H301.762V1280.97ZM301.762 1289.27H445.255V1293.58H301.762V1289.27ZM301.762 1293.58H436.9V1301.89H301.762V1293.58ZM301.762 1301.89H445.255V1306.2H301.762V1301.89ZM301.762 1306.2H436.9V1314.5H301.762V1306.2ZM301.762 1314.5H445.255V1318.81H301.762V1314.5ZM301.762 1318.81H436.9V1327.13H301.762V1318.81ZM301.762 1327.13H445.255V1331.42H301.762V1327.13ZM301.762 1331.42H436.9V1339.73H301.762V1331.42ZM301.762 1339.73H445.255V1344.04H301.762V1339.73ZM301.762 1344.04H436.9V1352.34H301.762V1344.04ZM301.762 1352.34H445.255V1356.66H301.762V1352.34ZM301.762 1356.66H436.9V1364.95H301.762V1356.66ZM301.762 1364.95H445.255V1369.26H301.762V1364.95ZM301.762 1369.26H436.9V1377.57H301.762V1369.26ZM301.762 1377.57H445.255V1381.88H301.762V1377.57ZM301.762 1381.88H436.9V1390.18H301.762V1381.88ZM301.762 1390.18H445.255V1394.49H301.762V1390.18ZM301.762 1394.49H436.9V1402.79H301.762V1394.49ZM301.762 1402.79H445.255V1407.11H301.762V1402.79ZM301.762 1407.11H436.9V1415.4H301.762V1407.11ZM301.762 1415.4H445.255V1419.72H301.762V1415.4ZM301.762 1419.72H436.9V1442.34H301.762V1419.72ZM292.883 1442.34H436.9V1450.32H292.883V1442.34ZM301.762 1450.32H436.9V1452.25H301.762V1450.32ZM301.762 1452.25H445.255V1453.15H301.762V1452.25ZM292.883 1453.15H445.255V1456.57H292.883V1453.15ZM292.883 1456.57H436.9V1461.12H292.883V1456.57ZM301.762 1461.12H436.9V1463.95H301.762V1461.12ZM292.883 1463.95H436.9V1464.86H292.883V1463.95ZM292.883 1464.86H445.255V1468.03H292.883V1464.86Z" fill="white"/>
</mask>
<g mask="url(#mask29_30_2323)">
<path d="M292.883 1468.03H445.255V915.363H292.883V1468.03Z" fill="#E55800"/>
</g>
<mask id="mask30_30_2323" style="mask-type:luminance" maskUnits="userSpaceOnUse" x="772" y="1161" width="169" height="308">
<path d="M772.362 1161.6H940.225V1468.73H772.362V1161.6Z" fill="white"/>
</mask>
<g mask="url(#mask30_30_2323)">
<mask id="mask31_30_2323" style="mask-type:luminance" maskUnits="userSpaceOnUse" x="772" y="1161" width="169" height="308">
<path d="M850.226 1183.55V1191.18H831.655V1183.55H850.226ZM831.655 1167.07H850.226V1176.59H831.655V1167.07ZM887.377 1183.55V1191.18H868.806V1183.55H887.377ZM868.806 1167.07H887.377V1176.59H868.806V1167.07ZM901.077 1186.39V1161.69H827.839L791.221 1180.04L791.506 1180.19H772.82L772.74 1468.02L939.994 1468.2L940.036 1186.39H901.077Z" fill="white"/>
</mask>
<g mask="url(#mask31_30_2323)">
<mask id="mask32_30_2323" style="mask-type:luminance" maskUnits="userSpaceOnUse" x="772" y="1161" width="169" height="308">
<path d="M850.226 1183.55V1191.18H831.655V1183.55H850.226ZM831.655 1167.07H850.226V1176.59H831.655V1167.07ZM887.377 1183.55V1191.18H868.806V1183.55H887.377ZM868.806 1167.07H887.377V1176.59H868.806V1167.07ZM901.077 1186.39V1161.69H827.839L791.221 1180.04L791.506 1180.19H772.82L772.74 1468.02L939.994 1468.2L940.036 1186.39H901.077Z" fill="white"/>
</mask>
<g mask="url(#mask32_30_2323)">
<path d="M772.74 1468.2H940.036V1161.69H772.74V1468.2Z" fill="#E55800"/>
</g>
</g>
</g>
<mask id="mask33_30_2323" style="mask-type:luminance" maskUnits="userSpaceOnUse" x="130" y="1141" width="180" height="328">
<path d="M149.951 1141.8H195.342V1149.12H149.951V1141.8ZM149.951 1149.12H178.648V1159.59H149.951V1149.12ZM188.04 1149.12H195.342V1159.59H188.04V1149.12ZM149.951 1159.59H195.342V1167.95H149.951V1159.59ZM149.951 1167.95H178.648V1178.41H149.951V1167.95ZM188.04 1167.95H195.342V1178.41H188.04V1167.95ZM149.951 1178.41H195.342V1179.46H149.951V1178.41ZM137.425 1179.46H309.615V1188.86H137.425V1179.46ZM155.164 1188.86H309.615V1199.32H155.164V1188.86ZM137.425 1188.86H145.773V1199.32H137.425V1188.86ZM137.425 1199.32H309.615V1207.69H137.425V1199.32ZM145.249 1207.69H301.788V1235.91H145.249V1207.69ZM137.425 1235.91H309.615V1242.18H137.425V1235.91ZM137.425 1242.18H145.249V1252.64H137.425V1242.18ZM154.643 1242.18H309.615V1252.64H154.643V1242.18ZM137.425 1252.64H309.615V1257.88H137.425V1252.64ZM145.249 1257.88H301.788V1286.11H145.249V1257.88ZM137.425 1286.11H309.615V1288.8H137.425V1286.11ZM137.115 1288.8H309.615V1295.79H137.115V1288.8ZM130.263 1295.79H309.615V1300.15H130.263V1295.79ZM137.115 1300.15H309.615V1306.38H137.115V1300.15ZM130.263 1306.38H309.615V1310.69H130.263V1306.38ZM137.115 1310.69H309.615V1316.98H137.115V1310.69ZM130.263 1316.98H309.615V1321.24H130.263V1316.98ZM137.115 1321.24H309.615V1327.56H137.115V1321.24ZM130.263 1327.56H309.615V1331.79H130.263V1327.56ZM137.115 1331.79H309.615V1338.14H137.115V1331.79ZM130.263 1338.14H309.615V1342.34H130.263V1338.14ZM137.115 1342.34H309.615V1348.72H137.115V1342.34ZM130.263 1348.72H309.615V1352.89H130.263V1348.72ZM137.115 1352.89H309.615V1359.3H137.115V1352.89ZM130.263 1359.3H309.615V1363.44H130.263V1359.3ZM137.115 1363.44H309.615V1369.9H137.115V1363.44ZM130.263 1369.9H309.615V1373.99H130.263V1369.9ZM137.115 1373.99H309.615V1380.49H137.115V1373.99ZM130.263 1380.49H309.615V1384.54H130.263V1380.49ZM137.115 1384.54H309.615V1391.07H137.115V1384.54ZM130.263 1391.07H309.615V1395.09H130.263V1391.07ZM137.115 1395.09H309.615V1401.64H137.115V1395.09ZM130.263 1401.64H309.615V1405.64H130.263V1401.64ZM137.115 1405.64H309.615V1412.23H137.115V1405.64ZM130.263 1412.23H309.615V1416.21H130.263V1412.23ZM137.115 1416.21H309.615V1422.82H137.115V1416.21ZM130.263 1422.82H309.615V1426.76H130.263V1422.82ZM137.115 1426.76H309.615V1433.41H137.115V1426.76ZM130.263 1433.41H309.615V1437.3H130.263V1433.41ZM137.115 1437.3H309.615V1443.99H137.115V1437.3ZM130.263 1443.99H309.615V1447.85H130.263V1443.99ZM137.115 1447.85H309.615V1454.58H137.115V1447.85ZM130.263 1454.58H309.615V1458.4H130.263V1454.58ZM137.115 1458.4H309.615V1465.17H137.115V1458.4ZM130.263 1465.17H309.615V1468.03H130.263V1465.17Z" fill="white"/>
</mask>
<g mask="url(#mask33_30_2323)">
<path d="M130.263 1468.03H309.615V1141.8H130.263V1468.03Z" fill="#E55800"/>
</g>
<mask id="mask34_30_2323" style="mask-type:luminance" maskUnits="userSpaceOnUse" x="46" y="992" width="138" height="437">
<path d="M101.665 992.652H117.319V997.362H101.665V992.652ZM99.5793 997.362H154.368V1024.01H99.5793V997.362ZM53.1324 1019.84H65.1432V1024.01H53.1324V1019.84ZM46.3546 1024.01H165.32V1031.6H46.3546V1024.01ZM165.269 1031.6H176.022V1034.74H165.269V1031.6ZM46.3546 1031.6H164.885V1034.74H46.3546V1031.6ZM46.3546 1034.74H165.32V1041.25H46.3546V1034.74ZM46.3546 1041.25H164.885V1044.39H46.3546V1041.25ZM165.269 1041.25H176.022V1044.39H165.269V1041.25ZM46.3546 1044.39H165.32V1045.45H46.3546V1044.39ZM50.5288 1045.45H165.32V1050.91H50.5288V1045.45ZM50.5288 1050.91H164.885V1053.3H50.5288V1050.91ZM46.3546 1053.3H164.885V1054.04H46.3546V1053.3ZM165.269 1050.91H176.022V1054.04H165.269V1050.91ZM46.3546 1054.04H165.32V1060.55H46.3546V1054.04ZM46.3546 1060.55H164.885V1063.69H46.3546V1060.55ZM165.269 1060.55H176.022V1063.69H165.269V1060.55ZM46.3546 1063.69H165.32V1070.21H46.3546V1063.69ZM165.269 1070.21H176.022V1073.35H165.269V1070.21ZM46.3546 1070.21H164.885V1073.35H46.3546V1070.21ZM46.3546 1073.35H165.32V1076.83H46.3546V1073.35ZM50.5288 1076.83H165.32V1079.85H50.5288V1076.83ZM50.5288 1079.85H164.885V1083H50.5288V1079.85ZM165.269 1079.85H176.022V1083H165.269V1079.85ZM50.5288 1083H165.32V1084.67H50.5288V1083ZM46.3546 1084.67H165.32V1089.5H46.3546V1084.67ZM165.269 1089.5H176.022V1090.42H165.269V1089.5ZM165.269 1090.42H183.59V1092.63H165.269V1090.42ZM46.3546 1089.5H164.885V1092.63H46.3546V1089.5ZM46.3546 1092.63H183.59V1093.03H46.3546V1092.63ZM46.3546 1093.03H165.32V1099.31H46.3546V1093.03ZM46.3546 1099.31H182.548V1108.2H46.3546V1099.31ZM50.5288 1108.2H182.548V1116.03H50.5288V1108.2ZM46.3546 1116.03H182.548V1122.83H46.3546V1116.03ZM46.3546 1122.83H165.32V1128.11H46.3546V1122.83ZM165.269 1128.11H176.022V1131.25H165.269V1128.11ZM46.3546 1128.11H164.885V1131.25H46.3546V1128.11ZM46.3546 1131.25H165.32V1137.77H46.3546V1131.25ZM46.3546 1137.77H164.885V1139.56H46.3546V1137.77ZM50.5288 1139.56H164.885V1140.9H50.5288V1139.56ZM165.269 1137.77H176.022V1140.9H165.269V1137.77ZM50.5288 1140.9H165.32V1147.4H50.5288V1140.9ZM46.3546 1147.4H165.32V1147.42H46.3546V1147.4ZM46.3546 1147.42H164.885V1150.56H46.3546V1147.42ZM165.269 1147.42H176.022V1150.56H165.269V1147.42ZM46.3546 1150.56H165.32V1157.07H46.3546V1150.56ZM165.269 1157.07H176.022V1160.2H165.269V1157.07ZM46.3546 1157.07H164.885V1160.2H46.3546V1157.07ZM46.3546 1160.2H165.32V1166.72H46.3546V1160.2ZM46.3546 1166.72H164.885V1169.86H46.3546V1166.72ZM165.269 1166.72H176.022V1169.86H165.269V1166.72ZM46.3546 1169.86H165.32V1176.37H46.3546V1169.86ZM46.3546 1176.37H164.885V1179.52H46.3546V1176.37ZM165.269 1176.37H176.022V1179.52H165.269V1176.37ZM46.3546 1179.52H165.32V1186.02H46.3546V1179.52ZM46.3546 1186.02H164.885V1189.15H46.3546V1186.02ZM165.269 1186.02H176.022V1189.15H165.269V1186.02ZM46.3546 1189.15H165.32V1195.67H46.3546V1189.15ZM46.3546 1195.67H164.885V1198.81H46.3546V1195.67ZM165.269 1195.67H176.022V1198.81H165.269V1195.67ZM46.3546 1198.81H165.32V1205.33H46.3546V1198.81ZM165.269 1205.33H176.022V1208.47H165.269V1205.33ZM46.3546 1205.33H164.885V1208.47H46.3546V1205.33ZM46.3546 1208.47H165.32V1224.63H46.3546V1208.47ZM46.3546 1224.63H164.885V1227.77H46.3546V1224.63ZM165.269 1224.63H176.022V1227.77H165.269V1224.63ZM46.3546 1227.77H165.32V1234.29H46.3546V1227.77ZM46.3546 1234.29H164.885V1237.42H46.3546V1234.29ZM165.269 1234.29H176.022V1237.42H165.269V1234.29ZM46.3546 1237.42H165.32V1243.93H46.3546V1237.42ZM46.3546 1243.93H164.885V1247.07H46.3546V1243.93ZM165.269 1243.93H176.022V1247.07H165.269V1243.93ZM46.3546 1247.07H165.32V1253.58H46.3546V1247.07ZM46.3546 1253.58H164.885V1256.72H46.3546V1253.58ZM165.269 1253.58H176.022V1256.72H165.269V1253.58ZM46.3546 1256.72H165.32V1263.23H46.3546V1256.72ZM46.3546 1263.23H164.885V1266.36H46.3546V1263.23ZM165.269 1263.23H176.022V1266.36H165.269V1263.23ZM46.3546 1266.36H165.32V1272.89H46.3546V1266.36ZM165.269 1272.89H176.022V1276.03H165.269V1272.89ZM46.3546 1272.89H164.885V1276.03H46.3546V1272.89ZM46.3546 1276.03H165.32V1282.54H46.3546V1276.03ZM46.3546 1282.54H164.885V1285.67H46.3546V1282.54ZM165.269 1282.54H176.022V1285.67H165.269V1282.54ZM46.3546 1285.67H165.32V1292.2H46.3546V1285.67ZM165.269 1292.2H176.022V1295.33H165.269V1292.2ZM46.3546 1292.2H164.885V1295.33H46.3546V1292.2ZM46.3546 1295.33H165.32V1321.14H46.3546V1295.33ZM46.3546 1321.14H164.885V1324.27H46.3546V1321.14ZM165.269 1321.14H176.022V1324.27H165.269V1321.14ZM46.3546 1324.27H165.32V1330.79H46.3546V1324.27ZM165.269 1330.79H176.022V1333.93H165.269V1330.79ZM46.3546 1330.79H164.885V1333.93H46.3546V1330.79ZM46.3546 1333.93H165.32V1340.45H46.3546V1333.93ZM46.3546 1340.45H164.885V1343.58H46.3546V1340.45ZM165.269 1340.45H176.022V1343.58H165.269V1340.45ZM46.3546 1343.58H165.32V1350.1H46.3546V1343.58ZM46.3546 1350.1H164.885V1353.24H46.3546V1350.1ZM165.269 1350.1H176.022V1353.24H165.269V1350.1ZM46.3546 1353.24H165.32V1359.75H46.3546V1353.24ZM46.3546 1359.75H164.885V1362.89H46.3546V1359.75ZM165.269 1359.75H176.022V1362.89H165.269V1359.75ZM46.3546 1362.89H165.32V1369.41H46.3546V1362.89ZM46.3546 1369.41H164.885V1372.54H46.3546V1369.41ZM165.269 1369.41H176.022V1372.54H165.269V1369.41ZM46.3546 1372.54H165.32V1388.71H46.3546V1372.54ZM165.269 1388.71H176.022V1391.84H165.269V1388.71ZM46.3546 1388.71H164.885V1391.84H46.3546V1388.71ZM46.3546 1391.84H165.32V1398.36H46.3546V1391.84ZM165.269 1398.36H176.022V1401.49H165.269V1398.36ZM46.3546 1398.36H164.885V1401.49H46.3546V1398.36ZM46.3546 1401.49H165.32V1428.68H46.3546V1401.49Z" fill="white"/>
</mask>
<g mask="url(#mask34_30_2323)">
<path d="M46.3546 1428.68H183.59V992.652H46.3546V1428.68Z" fill="#E55800"/>
</g>
<mask id="mask35_30_2323" style="mask-type:luminance" maskUnits="userSpaceOnUse" x="-370" y="1084" width="2620" height="474">
<path d="M-369.102 1084.62H2249.47V1558H-369.102V1084.62Z" fill="white"/>
</mask>
<g mask="url(#mask35_30_2323)">
<path d="M2248.4 1301.09L2208.6 1300.72V1287.56H2168.38V1206.49H2142.72V1164.77H2110.62V1181.4H2080.41V1206.49H2045.63V1287.56H2038.54V1207.43H1951.99V1155.53H1923.67V1207.43H1829.25V1126.17H1785.81V1085.33H1770.7V1126.17H1768.82V1192.64H1708.07V1142.76H1676.58V1130.29H1624.85V1102.78H1606.15V1085.82H1589.41V1102.78H1525V1142.76H1455.01V1297.95H1127.68V1284.26H1107.86V1268.24H1080.66V1284.26H1068.9V1297.95H1064.11V1318.27H1034.2V1290.41H1017.21V1318.27H1007.45V1368.15H977.555V1336.59H958.345V1297.79H968.826V1273.78H958.345V1257.31H945.448V1249.75H909.566V1257.31H891.766V1233.59H862.361V1257.31H838.925V1368.15H799.72V1408.8H757.901V1358.49H626.903V1408.8H602.69V1372.23H563.753V1326.51H505.436V1408.8H467.68V1358.25H435.572V1408.8H409.136V1318.12H365.696V1343.99H322.269V1363.72H295.125V1390.91H242.947V1319.96H178.744V1345.79H164.514V1381.7H178.744V1418.04H123.981V1373.54H93.7321V1321.74H106.789V1274.16H93.7321V1250.12H76.7668V1233.12H54.1047V1250.12H37.1042V1275.62H5.00625V1266.38H-53.5345V1240.52H-62.9735V1212.81H-110.182V1266.38H-119.627V1223.89H-151.731V1266.38H-164.951V1379.09H-172.513V1308.88H-280.152V1347.68H-308.475V1379.09H-368.906L-369.102 1558H2249.47L2248.4 1301.09Z" fill="#E55800"/>
</g>
</g>
<defs>
<clipPath id="clip0_30_2323">
<rect width="1130" height="1558" fill="white"/>
</clipPath>
</defs>
</svg>
